<?xml version="1.0" encoding="UTF-8" standalone="no"?>
<!-- Created with Inkscape (http://www.inkscape.org/) -->

<svg
   xmlns:osb="http://www.openswatchbook.org/uri/2009/osb"
   xmlns:dc="http://purl.org/dc/elements/1.1/"
   xmlns:cc="http://creativecommons.org/ns#"
   xmlns:rdf="http://www.w3.org/1999/02/22-rdf-syntax-ns#"
   xmlns:svg="http://www.w3.org/2000/svg"
   xmlns="http://www.w3.org/2000/svg"
   xmlns:xlink="http://www.w3.org/1999/xlink"
   xmlns:sodipodi="http://sodipodi.sourceforge.net/DTD/sodipodi-0.dtd"
   xmlns:inkscape="http://www.inkscape.org/namespaces/inkscape"
   width="210mm"
   height="297mm"
   viewBox="0 0 744.09448819 1052.3622047"
   id="svg4144"
   version="1.1"
   inkscape:version="0.92.4 (5da689c313, 2019-01-14)"
   sodipodi:docname="logo.svg">
  <title
     id="title7826">climb2gether</title>
  <defs
     id="defs4146">
    <linearGradient
       id="linearGradient10801"
       osb:paint="gradient">
      <stop
         style="stop-color:#004577;stop-opacity:1"
         offset="0"
         id="stop10803" />
      <stop
         style="stop-color:#a6cee5;stop-opacity:0;"
         offset="1"
         id="stop10805" />
    </linearGradient>
    <linearGradient
       id="linearGradient9540"
       osb:paint="solid">
      <stop
         style="stop-color:#000000;stop-opacity:1;"
         offset="0"
         id="stop9542" />
    </linearGradient>
    <clipPath
       id="clipPath4756"
       clipPathUnits="userSpaceOnUse">
      <path
         inkscape:connector-curvature="0"
         id="path4758"
         d="m 0,595.28 841.89,0 L 841.89,0 0,0 0,595.28 Z" />
    </clipPath>
    <clipPath
       id="clipPath4934"
       clipPathUnits="userSpaceOnUse">
      <path
         inkscape:connector-curvature="0"
         id="path4936"
         d="m 265.71,213.753 129.164,0 0,-56.583 -129.164,0 0,56.583 z" />
    </clipPath>
    <clipPath
       id="clipPath4954"
       clipPathUnits="userSpaceOnUse">
      <path
         inkscape:connector-curvature="0"
         id="path4956"
         d="m 265.821,236.891 255.909,0 0,-83.538 -255.909,0 0,83.538 z" />
    </clipPath>
    <clipPath
       id="clipPath4974"
       clipPathUnits="userSpaceOnUse">
      <path
         inkscape:connector-curvature="0"
         id="path4976"
         d="m 430.126,220.86 91.646,0 0,-67.523 -91.646,0 0,67.523 z" />
    </clipPath>
    <clipPath
       id="clipPath4990"
       clipPathUnits="userSpaceOnUse">
      <path
         inkscape:connector-curvature="0"
         id="path4992"
         d="m 415.546,218.266 50.918,0 0,-64.645 -50.918,0 0,64.645 z" />
    </clipPath>
    <linearGradient
       id="linearGradient5018"
       spreadMethod="pad"
       gradientTransform="matrix(-7.802628,34.63652,34.63652,7.802628,422.47656,208.28613)"
       gradientUnits="userSpaceOnUse"
       y2="0"
       x2="1"
       y1="0"
       x1="0">
      <stop
         id="stop5020"
         offset="0"
         style="stop-opacity:1;stop-color:#bce2f4" />
      <stop
         id="stop5022"
         offset="0.005435"
         style="stop-opacity:1;stop-color:#bce2f4" />
      <stop
         id="stop5024"
         offset="0.326087"
         style="stop-opacity:1;stop-color:#e1f2f7" />
      <stop
         id="stop5026"
         offset="1"
         style="stop-opacity:1;stop-color:#ffffff" />
    </linearGradient>
    <clipPath
       id="clipPath5034"
       clipPathUnits="userSpaceOnUse">
      <path
         inkscape:connector-curvature="0"
         id="path5036"
         d="m 0,595.28 841.89,0 L 841.89,0 0,0 0,595.28 Z" />
    </clipPath>
    <linearGradient
       id="linearGradient5058"
       spreadMethod="pad"
       gradientTransform="matrix(-2.3249505,10.320651,10.320651,2.3249505,437.04199,191.22852)"
       gradientUnits="userSpaceOnUse"
       y2="0"
       x2="1"
       y1="0"
       x1="0">
      <stop
         id="stop5060"
         offset="0"
         style="stop-opacity:1;stop-color:#bce2f4" />
      <stop
         id="stop5062"
         offset="0.005435"
         style="stop-opacity:1;stop-color:#bce2f4" />
      <stop
         id="stop5064"
         offset="0.326087"
         style="stop-opacity:1;stop-color:#e1f2f7" />
      <stop
         id="stop5066"
         offset="1"
         style="stop-opacity:1;stop-color:#ffffff" />
    </linearGradient>
    <linearGradient
       id="linearGradient5082"
       spreadMethod="pad"
       gradientTransform="matrix(-1.8164062,8.06318,8.06318,1.8164062,395.73535,201.87598)"
       gradientUnits="userSpaceOnUse"
       y2="0"
       x2="1"
       y1="0"
       x1="0">
      <stop
         id="stop5084"
         offset="0"
         style="stop-opacity:1;stop-color:#bce2f4" />
      <stop
         id="stop5086"
         offset="0.005435"
         style="stop-opacity:1;stop-color:#bce2f4" />
      <stop
         id="stop5088"
         offset="0.326087"
         style="stop-opacity:1;stop-color:#e1f2f7" />
      <stop
         id="stop5090"
         offset="1"
         style="stop-opacity:1;stop-color:#ffffff" />
    </linearGradient>
    <clipPath
       id="clipPath5098"
       clipPathUnits="userSpaceOnUse">
      <path
         inkscape:connector-curvature="0"
         id="path5100"
         d="m 0,595.28 841.89,0 L 841.89,0 0,0 0,595.28 Z" />
    </clipPath>
    <clipPath
       id="clipPath5360"
       clipPathUnits="userSpaceOnUse">
      <path
         inkscape:connector-curvature="0"
         id="path5362"
         d="m 279.16,473.354 248.074,0 0,-66.29 -248.074,0 0,66.29 z" />
    </clipPath>
    <linearGradient
       id="linearGradient5384"
       spreadMethod="pad"
       gradientTransform="matrix(62.04834,0,0,-62.04834,280.56152,434.4668)"
       gradientUnits="userSpaceOnUse"
       y2="0"
       x2="1"
       y1="0"
       x1="0">
      <stop
         id="stop5386"
         offset="0"
         style="stop-opacity:1;stop-color:#e1ebf0" />
      <stop
         id="stop5388"
         offset="1"
         style="stop-opacity:1;stop-color:#b6ceda" />
    </linearGradient>
    <linearGradient
       id="linearGradient5404"
       spreadMethod="pad"
       gradientTransform="matrix(43.370605,0,0,-43.370605,343.73096,447.28125)"
       gradientUnits="userSpaceOnUse"
       y2="0"
       x2="1"
       y1="0"
       x1="0">
      <stop
         id="stop5406"
         offset="0"
         style="stop-opacity:1;stop-color:#e1ebf0" />
      <stop
         id="stop5408"
         offset="1"
         style="stop-opacity:1;stop-color:#b6ceda" />
    </linearGradient>
    <linearGradient
       id="linearGradient5424"
       spreadMethod="pad"
       gradientTransform="matrix(17.231934,0,0,-17.231934,390.5498,447.32031)"
       gradientUnits="userSpaceOnUse"
       y2="0"
       x2="1"
       y1="0"
       x1="0">
      <stop
         id="stop5426"
         offset="0"
         style="stop-opacity:1;stop-color:#e1ebf0" />
      <stop
         id="stop5428"
         offset="1"
         style="stop-opacity:1;stop-color:#b6ceda" />
    </linearGradient>
    <linearGradient
       id="linearGradient5444"
       spreadMethod="pad"
       gradientTransform="matrix(28.720703,0,0,-28.720703,410.65527,451.42139)"
       gradientUnits="userSpaceOnUse"
       y2="0"
       x2="1"
       y1="0"
       x1="0">
      <stop
         id="stop5446"
         offset="0"
         style="stop-opacity:1;stop-color:#e1ebf0" />
      <stop
         id="stop5448"
         offset="1"
         style="stop-opacity:1;stop-color:#b6ceda" />
    </linearGradient>
    <linearGradient
       id="linearGradient5464"
       spreadMethod="pad"
       gradientTransform="matrix(43.370117,0,0,-43.370117,451.44141,442.43945)"
       gradientUnits="userSpaceOnUse"
       y2="0"
       x2="1"
       y1="0"
       x1="0">
      <stop
         id="stop5466"
         offset="0"
         style="stop-opacity:1;stop-color:#e1ebf0" />
      <stop
         id="stop5468"
         offset="1"
         style="stop-opacity:1;stop-color:#b6ceda" />
    </linearGradient>
    <linearGradient
       id="linearGradient5484"
       spreadMethod="pad"
       gradientTransform="matrix(20.342773,0,0,-20.342773,495.95898,438.96777)"
       gradientUnits="userSpaceOnUse"
       y2="0"
       x2="1"
       y1="0"
       x1="0">
      <stop
         id="stop5486"
         offset="0"
         style="stop-opacity:1;stop-color:#e1ebf0" />
      <stop
         id="stop5488"
         offset="1"
         style="stop-opacity:1;stop-color:#b6ceda" />
    </linearGradient>
    <clipPath
       id="clipPath5496"
       clipPathUnits="userSpaceOnUse">
      <path
         inkscape:connector-curvature="0"
         id="path5498"
         d="m 0,595.28 841.89,0 L 841.89,0 0,0 0,595.28 Z" />
    </clipPath>
    <radialGradient
       inkscape:collect="always"
       xlink:href="#linearGradient9540"
       id="radialGradient9546"
       cx="357.0421"
       cy="852.72441"
       fx="357.0421"
       fy="852.72441"
       r="11.08588"
       gradientTransform="matrix(1,0,0,1.3170401,0,-270.34783)"
       gradientUnits="userSpaceOnUse" />
    <clipPath
       id="clipPath9570"
       clipPathUnits="userSpaceOnUse">
      <path
         inkscape:connector-curvature="0"
         id="path9572"
         d="m 0,595.28 841.89,0 L 841.89,0 0,0 0,595.28 Z" />
    </clipPath>
    <clipPath
       id="clipPath9748"
       clipPathUnits="userSpaceOnUse">
      <path
         inkscape:connector-curvature="0"
         id="path9750"
         d="m 265.71,213.753 129.164,0 0,-56.583 -129.164,0 0,56.583 z" />
    </clipPath>
    <clipPath
       id="clipPath9768"
       clipPathUnits="userSpaceOnUse">
      <path
         inkscape:connector-curvature="0"
         id="path9770"
         d="m 265.821,236.891 255.909,0 0,-83.538 -255.909,0 0,83.538 z" />
    </clipPath>
    <clipPath
       id="clipPath9788"
       clipPathUnits="userSpaceOnUse">
      <path
         inkscape:connector-curvature="0"
         id="path9790"
         d="m 430.126,220.86 91.646,0 0,-67.523 -91.646,0 0,67.523 z" />
    </clipPath>
    <clipPath
       id="clipPath9804"
       clipPathUnits="userSpaceOnUse">
      <path
         inkscape:connector-curvature="0"
         id="path9806"
         d="m 415.546,218.266 50.918,0 0,-64.645 -50.918,0 0,64.645 z" />
    </clipPath>
    <linearGradient
       id="linearGradient9832"
       spreadMethod="pad"
       gradientTransform="matrix(-7.802628,34.63652,34.63652,7.802628,422.47656,208.28613)"
       gradientUnits="userSpaceOnUse"
       y2="0"
       x2="1"
       y1="0"
       x1="0">
      <stop
         id="stop9834"
         offset="0"
         style="stop-opacity:1;stop-color:#bce2f4" />
      <stop
         id="stop9836"
         offset="0.005435"
         style="stop-opacity:1;stop-color:#bce2f4" />
      <stop
         id="stop9838"
         offset="0.326087"
         style="stop-opacity:1;stop-color:#e1f2f7" />
      <stop
         id="stop9840"
         offset="1"
         style="stop-opacity:1;stop-color:#ffffff" />
    </linearGradient>
    <clipPath
       id="clipPath9848"
       clipPathUnits="userSpaceOnUse">
      <path
         inkscape:connector-curvature="0"
         id="path9850"
         d="m 0,595.28 841.89,0 L 841.89,0 0,0 0,595.28 Z" />
    </clipPath>
    <linearGradient
       id="linearGradient9872"
       spreadMethod="pad"
       gradientTransform="matrix(-2.3249505,10.320651,10.320651,2.3249505,437.04199,191.22852)"
       gradientUnits="userSpaceOnUse"
       y2="0"
       x2="1"
       y1="0"
       x1="0">
      <stop
         id="stop9874"
         offset="0"
         style="stop-opacity:1;stop-color:#bce2f4" />
      <stop
         id="stop9876"
         offset="0.005435"
         style="stop-opacity:1;stop-color:#bce2f4" />
      <stop
         id="stop9878"
         offset="0.326087"
         style="stop-opacity:1;stop-color:#e1f2f7" />
      <stop
         id="stop9880"
         offset="1"
         style="stop-opacity:1;stop-color:#ffffff" />
    </linearGradient>
    <linearGradient
       id="linearGradient9896"
       spreadMethod="pad"
       gradientTransform="matrix(-1.8164062,8.06318,8.06318,1.8164062,395.73535,201.87598)"
       gradientUnits="userSpaceOnUse"
       y2="0"
       x2="1"
       y1="0"
       x1="0">
      <stop
         id="stop9898"
         offset="0"
         style="stop-opacity:1;stop-color:#bce2f4" />
      <stop
         id="stop9900"
         offset="0.005435"
         style="stop-opacity:1;stop-color:#bce2f4" />
      <stop
         id="stop9902"
         offset="0.326087"
         style="stop-opacity:1;stop-color:#e1f2f7" />
      <stop
         id="stop9904"
         offset="1"
         style="stop-opacity:1;stop-color:#ffffff" />
    </linearGradient>
    <clipPath
       id="clipPath9912"
       clipPathUnits="userSpaceOnUse">
      <path
         inkscape:connector-curvature="0"
         id="path9914"
         d="m 0,595.28 841.89,0 L 841.89,0 0,0 0,595.28 Z" />
    </clipPath>
    <clipPath
       id="clipPath10174"
       clipPathUnits="userSpaceOnUse">
      <path
         inkscape:connector-curvature="0"
         id="path10176"
         d="m 279.16,473.354 248.074,0 0,-66.29 -248.074,0 0,66.29 z" />
    </clipPath>
    <linearGradient
       id="linearGradient10198"
       spreadMethod="pad"
       gradientTransform="matrix(62.04834,0,0,-62.04834,280.56152,434.4668)"
       gradientUnits="userSpaceOnUse"
       y2="0"
       x2="1"
       y1="0"
       x1="0">
      <stop
         id="stop10200"
         offset="0"
         style="stop-opacity:1;stop-color:#e1ebf0" />
      <stop
         id="stop10202"
         offset="1"
         style="stop-opacity:1;stop-color:#b6ceda" />
    </linearGradient>
    <linearGradient
       id="linearGradient10218"
       spreadMethod="pad"
       gradientTransform="matrix(43.370605,0,0,-43.370605,343.73096,447.28125)"
       gradientUnits="userSpaceOnUse"
       y2="0"
       x2="1"
       y1="0"
       x1="0">
      <stop
         id="stop10220"
         offset="0"
         style="stop-opacity:1;stop-color:#e1ebf0" />
      <stop
         id="stop10222"
         offset="1"
         style="stop-opacity:1;stop-color:#b6ceda" />
    </linearGradient>
    <linearGradient
       id="linearGradient10238"
       spreadMethod="pad"
       gradientTransform="matrix(17.231934,0,0,-17.231934,390.5498,447.32031)"
       gradientUnits="userSpaceOnUse"
       y2="0"
       x2="1"
       y1="0"
       x1="0">
      <stop
         id="stop10240"
         offset="0"
         style="stop-opacity:1;stop-color:#e1ebf0" />
      <stop
         id="stop10242"
         offset="1"
         style="stop-opacity:1;stop-color:#b6ceda" />
    </linearGradient>
    <linearGradient
       id="linearGradient10258"
       spreadMethod="pad"
       gradientTransform="matrix(28.720703,0,0,-28.720703,410.65527,451.42139)"
       gradientUnits="userSpaceOnUse"
       y2="0"
       x2="1"
       y1="0"
       x1="0">
      <stop
         id="stop10260"
         offset="0"
         style="stop-opacity:1;stop-color:#e1ebf0" />
      <stop
         id="stop10262"
         offset="1"
         style="stop-opacity:1;stop-color:#b6ceda" />
    </linearGradient>
    <linearGradient
       id="linearGradient10278"
       spreadMethod="pad"
       gradientTransform="matrix(43.370117,0,0,-43.370117,451.44141,442.43945)"
       gradientUnits="userSpaceOnUse"
       y2="0"
       x2="1"
       y1="0"
       x1="0">
      <stop
         id="stop10280"
         offset="0"
         style="stop-opacity:1;stop-color:#e1ebf0" />
      <stop
         id="stop10282"
         offset="1"
         style="stop-opacity:1;stop-color:#b6ceda" />
    </linearGradient>
    <linearGradient
       id="linearGradient10298"
       spreadMethod="pad"
       gradientTransform="matrix(20.342773,0,0,-20.342773,495.95898,438.96777)"
       gradientUnits="userSpaceOnUse"
       y2="0"
       x2="1"
       y1="0"
       x1="0">
      <stop
         id="stop10300"
         offset="0"
         style="stop-opacity:1;stop-color:#e1ebf0" />
      <stop
         id="stop10302"
         offset="1"
         style="stop-opacity:1;stop-color:#b6ceda" />
    </linearGradient>
    <clipPath
       id="clipPath10310"
       clipPathUnits="userSpaceOnUse">
      <path
         inkscape:connector-curvature="0"
         id="path10312"
         d="m 0,595.28 841.89,0 L 841.89,0 0,0 0,595.28 Z" />
    </clipPath>
    <linearGradient
       inkscape:collect="always"
       xlink:href="#linearGradient10801"
       id="linearGradient10815"
       x1="346.45626"
       y1="852.72441"
       x2="367.62793"
       y2="852.72441"
       gradientUnits="userSpaceOnUse" />
    <linearGradient
       inkscape:collect="always"
       xlink:href="#linearGradient10801"
       id="linearGradient10819"
       gradientUnits="userSpaceOnUse"
       x1="346.45626"
       y1="852.72441"
       x2="367.62793"
       y2="852.72441" />
    <radialGradient
       inkscape:collect="always"
       xlink:href="#linearGradient9540"
       id="radialGradient10821"
       gradientUnits="userSpaceOnUse"
       gradientTransform="matrix(1,0,0,1.3170401,0,-270.34783)"
       cx="357.0421"
       cy="852.72441"
       fx="357.0421"
       fy="852.72441"
       r="11.08588" />
  </defs>
  <sodipodi:namedview
     id="base"
     pagecolor="#ffffff"
     bordercolor="#666666"
     borderopacity="1.0"
     inkscape:pageopacity="0.0"
     inkscape:pageshadow="2"
     inkscape:zoom="0.9899495"
     inkscape:cx="349.68457"
     inkscape:cy="346.15139"
     inkscape:document-units="px"
     inkscape:current-layer="g5096"
     showgrid="false"
     inkscape:window-width="1600"
     inkscape:window-height="837"
     inkscape:window-x="1912"
     inkscape:window-y="174"
     inkscape:window-maximized="1" />
  <metadata
     id="metadata4149">
    <rdf:RDF>
      <cc:Work
         rdf:about="">
        <dc:format>image/svg+xml</dc:format>
        <dc:type
           rdf:resource="http://purl.org/dc/dcmitype/StillImage" />
        <dc:title>climb2gether</dc:title>
      </cc:Work>
    </rdf:RDF>
  </metadata>
  <g
     inkscape:label="Layer 1"
     inkscape:groupmode="layer"
     id="layer1"
     style="display:inline">
    <flowRoot
       xml:space="preserve"
       id="flowRoot4730"
       style="font-style:normal;font-weight:normal;line-height:0.01%;font-family:sans-serif;letter-spacing:0px;word-spacing:0px;fill:#000000;fill-opacity:1;stroke:none;stroke-width:1px;stroke-linecap:butt;stroke-linejoin:miter;stroke-opacity:1"><flowRegion
         id="flowRegion4732"><rect
           id="rect4734"
           width="24.243662"
           height="59.598999"
           x="241.42645"
           y="438.18945" /></flowRegion><flowPara
         id="flowPara4736"
         style="font-size:40px;line-height:1.25"> </flowPara></flowRoot>    <g
       id="g4760"
       transform="matrix(1.6137701,0,0,-1.6137701,124.00087,1023.4094)" />
    <g
       id="g4764"
       transform="matrix(1.6137701,0,0,-1.6137701,234.24719,1018.7337)" />
    <g
       id="g4768"
       transform="matrix(1.6137701,0,0,-1.6137701,436.68787,980.37826)" />
    <g
       id="g4852"
       transform="matrix(1.6137701,0,0,-1.6137701,387.16045,526.28481)">
      <path
         d="m 0,0 c -3.82,-2.843 -8.244,-5.937 -9.688,-10.307 2.333,-0.459 4.688,0.683 6.317,1.755 1.055,-4.359 -2.545,-4.208 -4.432,-6.574 -0.799,-1.004 -2.443,-1.297 -3.302,-2.429 -0.728,-0.96 0.662,-3.348 -0.102,-4.446 -3.202,-4.611 -9.6,-5.837 -12.841,-9.929 6.907,-2.858 18.282,10.389 18.95,16.184 2.78,0.628 5.95,-0.062 8.256,-1.106 -0.121,2.756 -2.062,4.553 -3.076,6.954 1.08,0.097 1.996,0.77 3.076,0.892 -0.012,2.378 -0.144,3.749 -2.263,5.259 0.902,0.625 1.648,1.922 2.423,2.444 C 2.729,0.18 1.973,-0.219 0.65,0"
         style="fill:#ffffff;fill-opacity:1;fill-rule:evenodd;stroke:none"
         id="path4854"
         inkscape:connector-curvature="0" />
    </g>
    <g
       id="g4856"
       transform="matrix(1.6137701,0,0,-1.6137701,410.28433,546.25522)">
      <path
         d="m 0,0 c -0.232,-1.368 -5.13,-3.592 -5.062,-6.515 0.106,-4.46 5.127,-2.427 7.683,-5.048 5.506,-5.651 -6.505,-6.364 -10.37,-9.135 3.236,-1.399 7.268,-2.63 9.866,0.408 3.21,-0.086 6.01,-1.339 8.208,-3.761 1.103,8.46 19.211,-7.3 24.079,-8.436 -2.144,9.279 -17.834,13.317 -25.219,16.346 2.91,3.198 6.739,3.092 10.956,3.226 -3.153,3.733 -12.924,0.14 -13.073,5.651 -2.188,0.306 -5.544,2.182 -6.498,2.686 1.24,0.074 1.943,0.672 3.238,0.764 C 3.808,-1.331 2.371,-0.274 0,0"
         style="fill:#ffffff;fill-opacity:1;fill-rule:evenodd;stroke:none"
         id="path4858"
         inkscape:connector-curvature="0" />
    </g>
    <g
       id="g4860"
       transform="matrix(1.6137701,0,0,-1.6137701,328.29577,549.40869)">
      <path
         d="m 0,0 c -4.386,-4.354 -0.134,-7.421 -1.253,-11.74 -1.509,-5.821 -4.261,-2.408 -9.039,-2.719 -0.217,-0.016 -8.729,-2.265 -8.758,-2.285 -3.317,-2.423 -2.095,-7.827 -6.124,-10.646 5.424,-0.919 4.729,3.536 7.75,5.765 3.612,2.664 5.373,1.628 9.608,1.398 C 3.233,-20.826 0.95,-14.855 1.4,-5.961 4.236,-5.343 7.235,-5.72 9.005,-7.768 9.657,-2.751 1.72,-1.931 -1.302,0"
         style="fill:#ffffff;fill-opacity:1;fill-rule:evenodd;stroke:none"
         id="path4862"
         inkscape:connector-curvature="0" />
    </g>
    <g
       id="g4864"
       transform="matrix(1.6137701,0,0,-1.6137701,453.38022,550.45973)">
      <path
         d="M 0,0 C 2.813,0.125 5.06,1.073 7.73,1.205 6.691,-0.128 6.496,-1.203 4.105,-1.986 6.317,-1.749 7.015,-2.795 8.563,-3.26 7.515,-3.973 6.794,-5.758 5.785,-6.515 c 0.587,-0.392 1.513,-1.582 2.123,-1.954 -2.725,-2.632 -6.905,-1.44 -9.632,-3.958 3.309,-1.062 6.355,0.368 9.426,-0.714 -0.08,-2.143 -0.211,-4.245 -0.392,-6.348 0.167,0.327 0.822,1.524 1.012,1.85 -0.009,-0.994 0.204,-2.159 0.292,-3.155 0.218,0.522 1.399,1.974 1.645,2.506 0.237,-1.651 1.517,-2.726 1.938,-3.791 0.468,1.406 2.248,2.781 2.75,3.933 3.012,-1.441 3.325,-4.726 1.384,-7.161 0.632,-0.143 1.183,-0.057 1.81,-0.193 -0.461,-2.908 -0.854,-6.263 1.27,-8.305 -0.263,1.429 -0.139,3.006 -0.459,4.359 -0.153,0.132 1.82,0.04 1.799,0.036 0.463,-2.602 17.35,-10.268 11.882,-2.638 8.005,1.391 18.297,-2.894 23.936,-8.239 -3.155,4.136 -9.635,8.676 -14.215,9.687 -4.963,1.096 -14.765,-1.9 -17.5,2.427 2.504,1.636 5.957,1.538 8.934,2.247 -0.636,2.119 -2.496,3.184 -4.899,3.092 3.918,2.855 8.775,-0.879 13.349,-0.518 -0.195,3.922 -6.84,4.046 -10.211,3.907 -1.177,2.896 -4.787,2.515 -7.684,3.147 0.019,-0.138 0.331,1.23 0.328,1.353 -1.462,0.44 -2.571,1.293 -4.282,1.262 3.165,0.007 6.38,-0.071 9.507,0.134 -1.375,0.642 -2.415,1.594 -4.382,1.919 -0.916,1.83 -2.779,2.609 -5.068,2.474 0.248,0.092 0.356,0.271 0.322,0.542 -1.07,-0.175 -2.651,0.275 -3.767,0.245 1.37,3.96 -3.783,4.729 -7.034,4.444 0.258,0.18 1.945,0.718 2.327,0.813 0,-0.085 0.099,1.564 -0.298,1.175 1.743,0.711 2.64,2.066 4.875,2.066 -0.384,0.953 -0.176,2.143 -0.474,3.013 1.979,-0.033 2.872,0.971 4.965,-0.473 0.095,0.873 0.106,1.56 0.022,2.429 C 16.681,10.281 4.153,4.323 -0.649,0.651"
         style="fill:#ffffff;fill-opacity:1;fill-rule:evenodd;stroke:none"
         id="path4866"
         inkscape:connector-curvature="0" />
    </g>
    <g
       id="g4868"
       transform="matrix(1.6137701,0,0,-1.6137701,351.49782,210.95315)">
      <path
         d="m 0,0 c 0.613,-4.591 4.383,-9.395 4.463,-13.467 -1.36,1.441 -2.832,2.308 -3.843,4.136 -1.217,-2.86 -3.144,-5.787 -4.561,-8.676 0.248,1.16 0.307,2.335 0.571,3.479 -1.79,-4.194 -4.985,-7.098 -5.619,-11.54 -0.407,-2.854 -0.433,-9.324 -0.275,-12.961 -1.251,2.241 -1.394,6.046 -1.287,9.014 -0.438,-0.651 -1.876,-1.815 -2.348,-2.488 -0.153,0.525 0.094,1.418 -0.258,1.841 -4.237,-4.453 -3.723,-10.413 -8.892,-14.71 -0.153,0.276 -0.173,0.563 -0.06,0.858 -1.091,-1.867 -2.507,-3.263 -4.009,-4.759 0.806,2.451 1.935,5.084 2.588,7.359 -4.02,-3.63 -9.145,-6.509 -13.482,-9.967 0.039,5.314 5.771,9.772 9.004,13.451 3.427,3.899 7.182,9.552 10.423,13.676 3.077,3.915 8.078,5.777 10.58,10.264 C -4.111,-9.301 -5.057,-4.135 0,0"
         style="fill:#ffffff;fill-opacity:1;fill-rule:evenodd;stroke:none"
         id="path4870"
         inkscape:connector-curvature="0" />
    </g>
    <g
       id="g4872"
       transform="matrix(1.6137701,0,0,-1.6137701,371.6828,221.83348)">
      <path
         d="m 0,0 c -0.59,-4.743 -3.169,-10.407 -5.522,-14.399 0.855,0.549 1.767,0.954 2.621,1.587 0.228,-3.07 -1.538,-5.697 -3.284,-8.058 0.643,0.299 1.4,0.666 2.059,1.03 -0.934,-1.908 -1.567,-4.193 -2.792,-5.902 0.784,0.175 1.769,0.217 2.65,0.504 -0.855,-2.228 -2.212,-4.445 -3.858,-6.289 0.761,0.456 1.716,0.876 2.427,1.394 -1.141,-2.348 -2.584,-4.823 -3.964,-7.164 -0.274,-0.221 -0.28,-0.209 -0.018,0.036 0.996,0.733 2.327,1.243 3.32,2.06 -1.435,-2.91 -3.895,-5.353 -5.747,-8.059 0.155,0.126 2.571,1.447 3.476,2.094 -1.469,-2.035 -4.197,-5.247 -5.259,-6.582 1.496,0.808 3.147,1.279 4.555,2.231 -1.864,-1.946 -3.825,-3.727 -5.798,-5.555 2.387,0.063 4.691,0.791 6.603,2.063 0.044,-0.787 0.248,-1.722 0.264,-2.48 0.729,1.032 2.603,1.879 3.426,3.003 0.279,-0.812 0.979,-1.963 1.17,-2.485 0.504,0.083 0.537,1.51 0.875,1.787 0.802,-0.298 1.022,-1.591 1.956,-1.783 -0.032,0.621 -0.026,1.885 0.092,2.514 0.735,-1.177 2.022,-1.982 2.741,-3.071 -0.195,1.077 0.213,2.557 0.055,3.737 0.968,-0.634 2.621,-1.162 3.441,-1.779 0,0.584 -0.121,1.938 0.055,2.476 1.486,-1.486 3.531,-2.275 4.875,-3.16 -0.916,1.261 -1.655,3.241 -2.66,4.522 1.515,-1.26 3.412,-2.464 4.698,-3.858 -1.038,2.556 -3.088,5.755 -4.133,8.793 0.817,-0.877 2.003,-1.739 2.738,-2.5 -0.467,2.378 -1.75,4.573 -2.877,6.831 -0.255,0.263 -0.261,0.257 -0.02,-0.02 0.693,-0.587 1.643,-1.38 2.199,-1.899 -0.552,2.174 -1.967,4.559 -2.566,6.658 0.702,-0.496 1.358,-1.068 2.057,-1.59 -1.329,2.029 -2.66,4.128 -3.984,6.084 0.363,1.307 0.976,2.317 0.527,4.596 0.641,-0.274 1.382,-0.719 1.866,-1.05 -0.771,1.144 -1.378,3.163 -2.584,4.496 0.372,-0.228 0.776,-0.33 1.211,-0.304 -0.674,1.833 -1.064,3.616 -2.591,5.247 -0.002,0.002 1.13,-1.026 1.17,-1.064 -0.429,1.885 -1.007,4.22 -2.04,5.981 0.208,-0.09 1.103,-0.939 1.359,-1.108 C 3.3,-7.046 0.369,-4.438 1.398,0"
         style="fill:#032949;fill-opacity:1;fill-rule:evenodd;stroke:none"
         id="path4874"
         inkscape:connector-curvature="0" />
    </g>
    <path
       d="m 375.07011,322.25 -5.64174,0 0,-30.46475 5.64174,0 0,30.46475 z"
       style="fill:#032949;fill-opacity:1;fill-rule:evenodd;stroke:none"
       id="path4876"
       inkscape:connector-curvature="0" />
    <g
       id="g4878"
       transform="matrix(1.6137701,0,0,-1.6137701,270.44218,263.8435)">
      <path
         d="m 0,0 c -0.333,-2.688 -1.795,-5.895 -3.128,-8.157 0.484,0.312 1,0.539 1.485,0.9 0.128,-1.739 -0.872,-3.227 -1.86,-4.564 0.364,0.168 0.792,0.377 1.166,0.582 -0.529,-1.08 -0.888,-2.375 -1.582,-3.343 0.445,0.098 1.002,0.121 1.502,0.284 -0.484,-1.261 -1.253,-2.517 -2.187,-3.561 0.432,0.258 0.972,0.496 1.376,0.789 -0.647,-1.331 -1.464,-2.734 -2.246,-4.058 -0.155,-0.126 -0.159,-0.12 -0.011,0.02 0.565,0.414 1.318,0.705 1.881,1.165 -0.813,-1.648 -2.207,-3.031 -3.255,-4.564 0.087,0.071 1.456,0.819 1.969,1.188 -0.832,-1.155 -2.378,-2.975 -2.98,-3.73 0.848,0.458 1.784,0.723 2.581,1.263 -1.057,-1.102 -2.167,-2.111 -3.284,-3.146 1.352,0.036 2.656,0.447 3.74,1.167 0.025,-0.446 0.141,-0.975 0.149,-1.404 0.413,0.586 1.476,1.066 1.942,1.699 0.158,-0.458 0.554,-1.109 0.662,-1.406 0.285,0.048 0.305,0.856 0.496,1.014 0.455,-0.171 0.578,-0.903 1.109,-1.01 -0.019,0.351 -0.016,1.066 0.052,1.423 0.416,-0.668 1.145,-1.122 1.552,-1.739 -0.11,0.609 0.121,1.448 0.032,2.115 0.547,-0.357 1.484,-0.657 1.949,-1.006 0,0.329 -0.069,1.098 0.032,1.402 0.84,-0.843 2,-1.289 2.761,-1.791 -0.518,0.716 -0.938,1.837 -1.507,2.563 0.859,-0.716 1.934,-1.397 2.663,-2.186 -0.588,1.446 -1.75,3.261 -2.344,4.981 0.464,-0.496 1.136,-0.987 1.552,-1.415 -0.266,1.346 -0.991,2.589 -1.63,3.869 -0.144,0.149 -0.148,0.145 -0.011,-0.01 0.393,-0.335 0.931,-0.783 1.247,-1.076 -0.314,1.229 -1.116,2.582 -1.456,3.771 0.399,-0.281 0.77,-0.605 1.166,-0.902 -0.752,1.151 -1.506,2.341 -2.256,3.448 0.206,0.739 0.552,1.313 0.298,2.604 0.364,-0.156 0.783,-0.408 1.058,-0.596 -0.437,0.647 -0.781,1.793 -1.466,2.548 0.212,-0.129 0.441,-0.187 0.688,-0.173 -0.383,1.04 -0.603,2.05 -1.468,2.974 -10e-4,0 0.639,-0.581 0.662,-0.604 -0.243,1.068 -0.57,2.391 -1.156,3.389 C 2.061,-5.335 2.569,-5.814 2.713,-5.91 1.87,-3.992 0.21,-2.514 0.792,0"
         style="fill:#004573;fill-opacity:1;fill-rule:evenodd;stroke:none"
         id="path4880"
         inkscape:connector-curvature="0" />
    </g>
    <path
       d="m 272.36095,320.73003 -3.19688,0 0,-17.25766 3.19688,0 0,17.25766 z"
       style="fill:#004573;fill-opacity:1;fill-rule:evenodd;stroke:none"
       id="path4882"
       inkscape:connector-curvature="0" />
    <g
       id="g4884"
       transform="matrix(1.6137701,0,0,-1.6137701,312.40013,234.43694)">
      <path
         d="m 0,0 c -0.605,-4.418 -3.252,-9.694 -5.668,-13.413 0.876,0.512 1.813,0.888 2.69,1.478 0.234,-2.86 -1.577,-5.307 -3.368,-7.506 0.659,0.276 1.436,0.619 2.112,0.958 -0.958,-1.777 -1.607,-3.904 -2.866,-5.498 0.805,0.163 1.814,0.201 2.721,0.468 -0.876,-2.074 -2.271,-4.14 -3.959,-5.859 0.78,0.426 1.759,0.817 2.49,1.301 -1.171,-2.187 -2.653,-4.494 -4.067,-6.674 -0.282,-0.209 -0.288,-0.197 -0.02,0.033 1.021,0.682 2.388,1.159 3.407,1.918 -1.472,-2.711 -3.997,-4.987 -5.896,-7.509 0.157,0.12 2.638,1.348 3.566,1.953 -1.508,-1.898 -4.307,-4.89 -5.397,-6.132 1.536,0.753 3.23,1.19 4.676,2.077 -1.917,-1.81 -3.927,-3.47 -5.95,-5.174 2.449,0.059 4.81,0.736 6.775,1.921 0.045,-0.733 0.254,-1.603 0.27,-2.31 0.748,0.962 2.672,1.751 3.516,2.797 0.287,-0.755 1.003,-1.829 1.201,-2.314 0.515,0.076 0.551,1.407 0.897,1.666 0.825,-0.279 1.047,-1.484 2.009,-1.662 -0.034,0.578 -0.029,1.756 0.092,2.341 0.755,-1.096 2.074,-1.845 2.813,-2.86 -0.2,1.001 0.22,2.382 0.057,3.48 0.991,-0.588 2.687,-1.082 3.53,-1.657 0,0.546 -0.125,1.808 0.057,2.308 1.524,-1.386 3.625,-2.12 5,-2.944 -0.939,1.175 -1.696,3.02 -2.729,4.211 1.556,-1.173 3.502,-2.295 4.822,-3.594 -1.064,2.383 -3.169,5.363 -4.24,8.193 0.837,-0.818 2.054,-1.622 2.807,-2.33 -0.478,2.217 -1.794,4.261 -2.951,6.365 -0.261,0.245 -0.268,0.239 -0.02,-0.018 0.712,-0.548 1.685,-1.289 2.257,-1.77 -0.568,2.025 -2.02,4.249 -2.634,6.203 0.721,-0.462 1.395,-0.994 2.112,-1.483 -1.363,1.891 -2.73,3.845 -4.089,5.67 0.373,1.217 1.001,2.158 0.541,4.282 0.659,-0.255 1.416,-0.67 1.915,-0.979 -0.79,1.066 -1.415,2.948 -2.652,4.189 0.382,-0.212 0.796,-0.306 1.243,-0.282 -0.692,1.707 -1.091,3.366 -2.657,4.887 -0.003,0.002 1.157,-0.957 1.199,-0.992 -0.441,1.757 -1.034,3.931 -2.095,5.573 C 3.73,-8.773 4.65,-9.564 4.913,-9.721 3.385,-6.564 0.377,-4.133 1.435,0"
         style="fill:#032949;fill-opacity:1;fill-rule:evenodd;stroke:none"
         id="path4886"
         inkscape:connector-curvature="0" />
    </g>
    <path
       d="m 314.86281,318.89517 -5.78859,0 0,-28.38137 5.78859,0 0,28.38137 z"
       style="fill:#032949;fill-opacity:1;fill-rule:evenodd;stroke:none"
       id="path4888"
       inkscape:connector-curvature="0" />
    <g
       id="g4890"
       transform="matrix(1.6137701,0,0,-1.6137701,286.29456,263.46055)">
      <path
         d="m 0,0 c -0.423,-2.691 -2.274,-5.902 -3.964,-8.166 0.612,0.311 1.268,0.54 1.881,0.898 0.163,-1.741 -1.104,-3.229 -2.355,-4.567 0.461,0.167 1.003,0.376 1.477,0.583 -0.671,-1.083 -1.124,-2.378 -2.005,-3.349 0.563,0.1 1.269,0.124 1.903,0.288 -0.612,-1.263 -1.588,-2.523 -2.77,-3.569 0.547,0.262 1.233,0.498 1.742,0.791 -0.819,-1.33 -1.855,-2.735 -2.844,-4.061 -0.198,-0.126 -0.202,-0.12 -0.014,0.019 0.715,0.417 1.67,0.705 2.383,1.168 -1.029,-1.652 -2.796,-3.034 -4.123,-4.57 0.109,0.071 1.844,0.82 2.493,1.187 -1.055,-1.153 -3.012,-2.976 -3.775,-3.731 1.075,0.458 2.259,0.723 3.27,1.263 -1.34,-1.102 -2.746,-2.112 -4.161,-3.15 1.713,0.038 3.364,0.448 4.739,1.172 0.031,-0.446 0.178,-0.978 0.189,-1.409 0.523,0.586 1.869,1.066 2.46,1.703 0.2,-0.46 0.701,-1.113 0.839,-1.408 0.361,0.048 0.385,0.856 0.628,1.014 0.576,-0.169 0.733,-0.903 1.406,-1.01 -0.025,0.35 -0.021,1.066 0.063,1.425 0.529,-0.667 1.453,-1.125 1.967,-1.744 -0.138,0.612 0.155,1.451 0.041,2.119 0.693,-0.358 1.879,-0.659 2.469,-1.009 0,0.333 -0.086,1.101 0.04,1.404 1.067,-0.843 2.535,-1.289 3.499,-1.789 -0.657,0.714 -1.188,1.837 -1.91,2.562 1.088,-0.714 2.449,-1.396 3.373,-2.187 -0.744,1.45 -2.216,3.263 -2.966,4.986 0.586,-0.496 1.437,-0.986 1.964,-1.418 -0.335,1.351 -1.256,2.596 -2.064,3.876 -0.184,0.148 -0.188,0.146 -0.015,-0.011 0.499,-0.333 1.179,-0.784 1.578,-1.079 -0.395,1.236 -1.411,2.586 -1.841,3.778 0.504,-0.28 0.975,-0.606 1.477,-0.903 -0.954,1.15 -1.91,2.341 -2.861,3.451 0.262,0.741 0.701,1.315 0.38,2.606 0.461,-0.156 0.99,-0.409 1.339,-0.596 -0.553,0.65 -0.991,1.795 -1.856,2.552 0.267,-0.13 0.558,-0.189 0.87,-0.174 -0.484,1.04 -0.763,2.05 -1.858,2.977 -0.003,0 0.808,-0.582 0.84,-0.604 -0.31,1.068 -0.725,2.393 -1.468,3.391 0.151,-0.05 0.794,-0.532 0.977,-0.63 C 2.369,-3.996 0.265,-2.518 1.004,0"
         style="fill:#032949;fill-opacity:1;fill-rule:evenodd;stroke:none"
         id="path4892"
         inkscape:connector-curvature="0" />
    </g>
    <path
       d="m 288.72458,320.41211 -4.04895,0 0,-17.27702 4.04895,0 0,17.27702 z"
       style="fill:#032949;fill-opacity:1;fill-rule:evenodd;stroke:none"
       id="path4894"
       inkscape:connector-curvature="0" />
    <g
       id="g4896"
       transform="matrix(1.6137701,0,0,-1.6137701,329.8245,269.59713)">
      <path
         d="m 0,0 c -0.354,-2.243 -1.897,-4.923 -3.307,-6.81 0.511,0.26 1.058,0.451 1.57,0.751 0.135,-1.452 -0.921,-2.695 -1.966,-3.81 0.386,0.14 0.838,0.312 1.233,0.486 -0.56,-0.902 -0.939,-1.982 -1.672,-2.791 0.47,0.081 1.058,0.102 1.587,0.237 -0.51,-1.054 -1.325,-2.1 -2.31,-2.974 0.456,0.217 1.027,0.416 1.452,0.659 -0.682,-1.109 -1.547,-2.281 -2.371,-3.387 -0.165,-0.105 -0.169,-0.099 -0.011,0.017 0.595,0.346 1.392,0.587 1.986,0.974 -0.858,-1.377 -2.331,-2.531 -3.438,-3.811 0.091,0.06 1.538,0.683 2.079,0.989 -0.879,-0.962 -2.511,-2.481 -3.148,-3.113 0.896,0.385 1.885,0.605 2.728,1.056 -1.118,-0.92 -2.29,-1.761 -3.471,-2.625 1.43,0.029 2.806,0.374 3.952,0.973 0.026,-0.37 0.149,-0.814 0.158,-1.171 0.437,0.486 1.557,0.886 2.051,1.42 0.167,-0.386 0.585,-0.93 0.699,-1.174 0.302,0.037 0.323,0.712 0.525,0.846 0.48,-0.143 0.611,-0.756 1.172,-0.845 -0.02,0.292 -0.018,0.89 0.053,1.187 0.441,-0.556 1.21,-0.936 1.641,-1.452 -0.116,0.51 0.128,1.21 0.033,1.767 0.578,-0.298 1.567,-0.547 2.059,-0.84 0,0.276 -0.073,0.916 0.034,1.17 0.89,-0.703 2.113,-1.075 2.917,-1.494 -0.548,0.596 -0.99,1.533 -1.592,2.138 0.906,-0.596 2.041,-1.165 2.812,-1.824 -0.621,1.209 -1.849,2.722 -2.473,4.157 0.487,-0.412 1.198,-0.82 1.637,-1.182 -0.28,1.126 -1.047,2.164 -1.722,3.232 -0.152,0.124 -0.156,0.122 -0.011,-0.01 0.416,-0.277 0.983,-0.653 1.317,-0.898 -0.332,1.028 -1.18,2.157 -1.538,3.149 0.422,-0.235 0.815,-0.506 1.233,-0.751 -0.795,0.958 -1.592,1.952 -2.385,2.877 0.218,0.617 0.584,1.096 0.317,2.173 0.383,-0.129 0.825,-0.341 1.116,-0.496 -0.462,0.54 -0.826,1.496 -1.548,2.126 0.223,-0.108 0.465,-0.157 0.725,-0.144 -0.404,0.866 -0.636,1.709 -1.549,2.483 -0.002,0 0.676,-0.487 0.7,-0.504 C 3.017,-6.349 2.67,-5.243 2.051,-4.413 2.176,-4.454 2.713,-4.854 2.866,-4.937 1.975,-3.333 0.22,-2.1 0.836,0"
         style="fill:#032949;fill-opacity:1;fill-rule:evenodd;stroke:none"
         id="path4898"
         inkscape:connector-curvature="0" />
    </g>
    <path
       d="m 330.84075,313.04687 -3.37762,0 0,-14.40936 3.37762,0 0,14.40936 z"
       style="fill:#032949;fill-opacity:1;fill-rule:evenodd;stroke:none"
       id="path4900"
       inkscape:connector-curvature="0" />
    <g
       id="g4902"
       transform="matrix(1.6137701,0,0,-1.6137701,347.57377,283.61686)">
      <path
         d="m 0,0 c -0.33,-1.698 -1.774,-3.726 -3.093,-5.152 0.479,0.197 0.99,0.34 1.468,0.568 0.127,-1.098 -0.862,-2.04 -1.838,-2.883 0.36,0.106 0.784,0.237 1.152,0.368 -0.523,-0.683 -0.877,-1.502 -1.563,-2.113 0.439,0.062 0.99,0.077 1.485,0.181 -0.479,-0.797 -1.24,-1.59 -2.16,-2.251 0.425,0.166 0.96,0.315 1.358,0.5 -0.639,-0.841 -1.448,-1.727 -2.219,-2.564 -0.154,-0.078 -0.158,-0.074 -0.011,0.014 0.557,0.263 1.303,0.444 1.858,0.735 -0.803,-1.04 -2.181,-1.915 -3.216,-2.882 0.085,0.045 1.439,0.517 1.946,0.749 -0.823,-0.727 -2.351,-1.877 -2.946,-2.355 0.839,0.291 1.762,0.458 2.552,0.799 -1.045,-0.695 -2.143,-1.333 -3.248,-1.986 1.337,0.021 2.626,0.281 3.698,0.737 0.023,-0.281 0.139,-0.618 0.148,-0.889 0.408,0.37 1.458,0.674 1.919,1.076 0.156,-0.291 0.546,-0.704 0.654,-0.89 0.282,0.031 0.301,0.542 0.49,0.641 0.449,-0.108 0.572,-0.57 1.096,-0.639 -0.018,0.222 -0.014,0.674 0.05,0.898 0.413,-0.421 1.133,-0.707 1.536,-1.098 -0.109,0.387 0.12,0.915 0.031,1.337 0.54,-0.227 1.465,-0.417 1.926,-0.637 0,0.211 -0.067,0.695 0.032,0.888 0.832,-0.534 1.977,-0.815 2.728,-1.131 -0.512,0.45 -0.926,1.159 -1.489,1.617 0.848,-0.452 1.911,-0.88 2.631,-1.378 -0.58,0.914 -1.729,2.057 -2.314,3.143 0.457,-0.313 1.121,-0.622 1.533,-0.894 -0.262,0.85 -0.981,1.637 -1.611,2.446 -0.143,0.092 -0.146,0.09 -0.011,-0.008 0.389,-0.212 0.919,-0.494 1.231,-0.681 -0.309,0.779 -1.102,1.631 -1.437,2.384 0.394,-0.179 0.762,-0.382 1.153,-0.57 -0.744,0.726 -1.49,1.477 -2.232,2.178 0.205,0.466 0.547,0.829 0.296,1.643 0.359,-0.097 0.773,-0.256 1.045,-0.376 -0.432,0.411 -0.773,1.131 -1.449,1.61 0.21,-0.082 0.435,-0.118 0.679,-0.11 -0.377,0.656 -0.595,1.293 -1.449,1.878 -0.003,0 0.631,-0.368 0.654,-0.382 -0.241,0.675 -0.565,1.51 -1.144,2.14 0.118,-0.03 0.619,-0.335 0.763,-0.396 C 1.847,-2.522 0.206,-1.588 0.784,0"
         style="fill:#032949;fill-opacity:1;fill-rule:evenodd;stroke:none"
         id="path4904"
         inkscape:connector-curvature="0" />
    </g>
    <path
       d="m 349.4685,319.54391 -3.15815,0 0,-10.89779 3.15815,0 0,10.89779 z"
       style="fill:#032949;fill-opacity:1;fill-rule:evenodd;stroke:none"
       id="path4906"
       inkscape:connector-curvature="0" />
    <g
       id="g4908"
       transform="matrix(1.6137701,0,0,-1.6137701,406.04304,262.40769)">
      <path
         d="m 0,0 c -0.531,-2.729 -2.853,-5.984 -4.972,-8.279 0.769,0.314 1.592,0.548 2.361,0.912 0.204,-1.765 -1.386,-3.278 -2.955,-4.634 0.579,0.172 1.259,0.383 1.852,0.594 -0.841,-1.098 -1.409,-2.412 -2.513,-3.397 0.705,0.102 1.591,0.123 2.387,0.291 -0.767,-1.281 -1.993,-2.556 -3.472,-3.616 0.684,0.263 1.542,0.502 2.182,0.801 -1.027,-1.351 -2.324,-2.775 -3.565,-4.119 -0.248,-0.128 -0.254,-0.12 -0.02,0.019 0.897,0.422 2.098,0.715 2.988,1.186 -1.291,-1.674 -3.505,-3.078 -5.168,-4.634 0.136,0.073 2.312,0.833 3.125,1.205 -1.322,-1.171 -3.776,-3.02 -4.733,-3.785 1.347,0.464 2.832,0.735 4.102,1.283 -1.682,-1.12 -3.446,-2.143 -5.218,-3.195 2.145,0.038 4.218,0.454 5.941,1.185 0.039,-0.451 0.225,-0.99 0.238,-1.424 0.657,0.591 2.343,1.08 3.085,1.725 0.251,-0.467 0.878,-1.128 1.05,-1.427 0.452,0.048 0.484,0.867 0.788,1.029 0.721,-0.174 0.918,-0.917 1.763,-1.027 -0.031,0.355 -0.025,1.082 0.079,1.443 0.664,-0.676 1.821,-1.138 2.467,-1.765 -0.173,0.619 0.193,1.472 0.051,2.15 0.868,-0.366 2.356,-0.67 3.096,-1.025 0,0.337 -0.11,1.115 0.05,1.425 1.338,-0.855 3.18,-1.308 4.387,-1.816 -0.822,0.724 -1.489,1.864 -2.394,2.598 1.364,-0.723 3.07,-1.416 4.229,-2.217 -0.935,1.47 -2.78,3.309 -3.72,5.056 0.734,-0.504 1.802,-1 2.464,-1.438 -0.42,1.369 -1.575,2.631 -2.59,3.928 -0.229,0.152 -0.233,0.148 -0.017,-0.01 0.626,-0.338 1.477,-0.796 1.979,-1.093 -0.496,1.251 -1.771,2.622 -2.309,3.829 0.632,-0.285 1.221,-0.613 1.851,-0.914 -1.193,1.167 -2.394,2.374 -3.586,3.5 0.329,0.749 0.878,1.33 0.475,2.641 0.578,-0.157 1.242,-0.415 1.679,-0.603 -0.694,0.657 -1.242,1.818 -2.327,2.585 0.335,-0.131 0.7,-0.189 1.091,-0.175 -0.608,1.054 -0.958,2.078 -2.33,3.018 -0.002,0 1.015,-0.589 1.053,-0.614 C 4.537,-7.72 4.017,-6.377 3.084,-5.363 3.272,-5.415 4.081,-5.903 4.31,-6.001 2.97,-4.053 0.332,-2.552 1.259,0"
         style="fill:#032949;fill-opacity:1;fill-rule:evenodd;stroke:none"
         id="path4910"
         inkscape:connector-curvature="0" />
    </g>
    <path
       d="m 409.09161,320.15048 -5.07692,0 0,-17.51747 5.07692,0 0,17.51747 z"
       style="fill:#032949;fill-opacity:1;fill-rule:evenodd;stroke:none"
       id="path4912"
       inkscape:connector-curvature="0" />
    <g
       id="g4914"
       transform="matrix(1.6137701,0,0,-1.6137701,151.77692,781.13122)">
      <path
         d="m 0,0 c 0,0 0.398,-0.06 1.137,-0.045 0.739,0.016 1.819,0.102 3.183,0.382 1.365,0.285 3.012,0.767 4.889,1.578 0.754,0.673 -0.415,1.414 6.251,3.53 0.641,0.231 0.945,0.968 1.477,1.213 1.902,0.87 3.319,1.364 3.108,2.857 0.771,1.57 1.505,2.536 2.606,2.779 1.966,2.5 2.159,1.651 3.093,0.745 1.037,-0.128 2.64,-0.735 4.401,-1.438 0.588,-0.234 0.936,-0.288 1.629,-0.592 0.268,-0.115 0.434,0.277 0.799,-0.351 0.281,-0.477 1.767,-0.743 1.972,-0.824 5.763,-2.335 7.105,-1.992 14.564,-3.48 9.095,-1.818 16.37,-1.818 16.37,-1.818 0,0 -0.911,-6.35 -15.46,-9.076 C 35.467,-7.263 17.28,-9.988 17.28,-9.988 L 1.819,-14.524 c -3.596,-1.054 -16.177,-8.674 -20.254,-6.14 -2.614,1.626 1.229,10.676 1.742,12.399 0.401,1.347 -1.411,1.823 -0.801,2.907 0.661,1.169 4.283,3.394 7.232,3.812 C -9.175,-1.39 -1.09,-0.589 0,0"
         style="fill:#003447;fill-opacity:1;fill-rule:evenodd;stroke:none"
         id="path4916"
         inkscape:connector-curvature="0" />
    </g>
    <g
       id="g4918"
       transform="matrix(1.6137701,0,0,-1.6137701,183.05791,766.91456)">
      <path
         d="M 0,0 C 0,0 0.357,1.975 1.75,2.858 3.141,3.747 3.715,5.247 4.954,5.247 6.195,5.247 8.953,3.49 8.953,3.49 6.77,3.72 2.562,2.867 3.418,1.783 4.274,0.701 4.916,-0.186 4.916,-0.186 L 2.774,0.994 2.026,0.012 1.17,-1.468 -0.627,-2.056 -5.309,-3.871 c 0,0 5.846,4.066 5.309,3.871"
         style="fill:#003447;fill-opacity:1;fill-rule:evenodd;stroke:none"
         id="path4920"
         inkscape:connector-curvature="0" />
    </g>
    <g
       id="g4922"
       transform="matrix(1.6137701,0,0,-1.6137701,525.36324,757.16416)">
      <path
         d="m 0,0 c -0.6,-0.117 -7.303,8.666 -8.408,8.704 -1.109,0.04 -2.446,0.227 -3.97,0.701 -0.613,0.536 0.336,1.491 -5.075,2.41 -0.52,0.119 -0.767,0.799 -1.199,0.951 -1.544,0.528 -4.139,0.39 -3.969,1.919 -0.628,1.431 -1.222,2.264 -2.117,2.312 -1.594,2.146 -2.592,0.948 -3.349,-0.123 -0.846,-0.315 0.145,-0.513 -1.285,-1.528 -0.478,-0.341 -0.761,-0.012 -1.322,-0.441 -0.218,-0.165 -2.101,-1.308 -2.55,-0.944 -0.299,0.243 -2.615,-0.906 -2.984,-1.177 -0.175,-0.128 -6.952,1.462 -12.42,-3.702 -7.38,-3.442 -9.407,-7.132 -9.407,-7.132 0,0 3.625,-5.113 15.436,-5.231 C -30.807,-3.4 -7.374,-8.616 -7.374,-8.616 5.844,-7.014 0.599,0.118 0,0"
         style="fill:#003447;fill-opacity:1;fill-rule:evenodd;stroke:none"
         id="path4924"
         inkscape:connector-curvature="0" />
    </g>
    <g
       id="g4926"
       transform="matrix(1.6137701,0,0,-1.6137701,354.18452,789.01724)">
      <path
         d="m 0,0 c 1.29,1.477 39.143,32.404 40.257,33.235 1.114,0.831 6.317,1.945 7.134,2.602 0.457,0.373 0.718,1.159 1.083,1.502 1.938,1.831 2.948,2.731 2.948,2.731 0.931,0.405 1.933,1.588 2.917,2.048 1.081,0.506 2.152,0.293 3.287,0.857 0.449,0.012 0.934,-0.59 1.435,-1.466 0.032,-0.883 1.167,-1.709 1.736,-2.128 1.292,-2.663 6.667,-4.219 7.908,-5.99 0.021,-0.787 0.554,-1.628 0.726,-2.286 1.194,-2.766 9.317,-3.54 8.92,-6.622 4.705,-1.529 7.671,-4.18 7.889,-3.888 3.116,-1.926 4.981,-0.562 8.098,-2.49 3.2,-0.223 7.913,-6.759 11.113,-6.983 3.872,-6.171 -2.169,-5.631 0,-8.211 0,0 8.374,-12.949 -4.369,-12.903 -12.744,0.05 -46.545,8.608 -53.42,8.108 C 45.773,-2.018 -0.143,-0.177 0,0"
         style="fill:#004577;fill-opacity:1;fill-rule:evenodd;stroke:none"
         id="path4928"
         inkscape:connector-curvature="0" />
    </g>
    <g
       id="g4930"
       transform="matrix(1.6137701,0,0,-1.6137701,-311.12287,1074.5206)">
      <g
         id="g4932" />
      <g
         id="g4938">
        <g
           clip-path="url(#clipPath4934)"
           id="g4940"
           style="opacity:0.80000299">
          <g
             transform="translate(372.4775,207.6582)"
             id="g4942">
            <path
               d="m 0,0 c -2.349,1.207 -6.433,-3.598 -8.424,-2.994 -1.991,0.607 -1.062,0.35 -2.526,0.848 -0.82,0.275 -0.518,1.196 -1.175,1.464 -3.5,1.433 -4.079,0.413 -4.079,0.413 -1.635,0.223 -3.468,1.204 -5.201,1.468 -1.903,0.289 -3.714,-0.126 -5.711,0.207 -0.774,-0.075 -1.544,-0.76 -2.321,-1.724 0.033,-0.881 -0.056,-1.718 -0.995,-2.24 -1.95,-2.884 -3.901,-4.988 -5.853,-6.978 0.043,-0.785 -0.791,-1.716 -1.02,-2.401 -1.108,-3.297 -4.322,-5.231 -7.999,-5.903 -9.097,-1.673 -16.372,-8.369 -16.372,-8.369 0,0 -13.132,-5.201 -15.46,-7.53 -0.717,-1.602 -8.786,-0.986 -9.424,-2.568 -3.281,-1.109 -9.321,0.872 -10.832,-0.635 -1.509,-0.791 -3.814,-0.464 -4.681,-1.379 -9.466,-10.008 -1.687,-9.966 -1.687,-9.966 0,0 10.255,-3.863 32.081,-1.354 21.826,2.513 51.838,13.392 63.66,14.227 11.704,0.828 46.64,26.66 21.55,41.506 C 13.281,6.243 0.264,-0.151 0,0"
               style="fill:#004577;fill-opacity:1;fill-rule:evenodd;stroke:none"
               id="path4944"
               inkscape:connector-curvature="0" />
          </g>
        </g>
      </g>
    </g>
    <g
       id="g4946"
       transform="matrix(1.6137701,0,0,-1.6137701,245.59473,737.78794)">
      <path
         d="m 0,0 c 0,0 -1.926,-0.395 -1.604,-2.165 0.322,-1.773 -0.536,-0.789 -1.713,-2.758 -1.177,-1.972 0.427,-1.38 0.427,-1.38 0,0 0.536,0.395 -1.069,-0.884 -1.606,-1.282 -2.355,-1.577 -3.532,-2.56 -1.177,-0.986 -0.963,-1.186 0.322,-1.775 1.283,-0.59 0.535,-0.887 -1.499,-2.757 -2.033,-1.871 -2.248,-2.366 -3.533,-3.053 -1.284,-0.69 -3.638,-0.593 -6.205,-2.167 -2.571,-1.574 -6.743,-3.054 -5.459,-2.067 1.285,0.983 1.821,1.378 1.821,1.378 0,0 -3.64,-0.885 -6.102,-3.154 -2.461,-2.262 -7.491,-4.461 -7.491,-4.461 l -6.956,-5.113 c 0,0 12.093,6.325 14.876,8.197 2.781,1.871 5.884,2.166 4.708,0.985 -1.177,-1.182 -4.816,-4.826 -4.816,-4.826 0,0 5.137,3.644 9.205,5.712 4.067,2.068 6.848,3.841 7.919,4.331 0.461,0.213 5.489,-2.026 6.665,-3.472 2.825,-3.475 -1.595,4.787 -0.97,4.938 0.307,0.076 3.7,-2.936 0.914,0.23 -1.046,1.187 2.943,0.786 3.745,1.141 2.247,0.982 -7.357,-0.175 -8.748,-0.965 -1.392,-0.789 -6.635,-3.84 -6.635,-3.84 0,0 6.849,5.809 9.311,6.698 2.46,0.886 5.029,2.559 6.526,3.249 1.499,0.689 -4.388,0.1 -3.209,0.985 1.176,0.887 1.925,1.871 3.746,2.461 1.818,0.59 -2.355,1.675 -1.286,2.364 1.072,0.69 5.975,-2.459 7.472,-3.049 1.5,-0.59 -5.01,4.628 -6.294,5.217 -1.284,0.592 0,1.181 1.607,1.279 C 3.746,-1.182 0.107,-0.295 0,0"
         style="fill:#ffffff;fill-opacity:1;fill-rule:evenodd;stroke:none"
         id="path4948"
         inkscape:connector-curvature="0" />
    </g>
    <g
       id="g4950"
       transform="matrix(1.6137701,0,0,-1.6137701,-311.12287,1074.5206)">
      <g
         id="g4952" />
      <g
         id="g4958">
        <g
           clip-path="url(#clipPath4954)"
           id="g4960"
           style="opacity:0.80000299">
          <g
             transform="translate(265.8208,162.5977)"
             id="g4962">
            <path
               d="m 0,0 c 3.286,5.457 15.607,2.674 23.488,4.871 2.415,-1.448 14.707,0.157 17.858,-0.247 10.076,2.689 24.421,9.584 24.421,9.584 0,0 13.774,1.41 22.868,7.99 9.093,10.882 16.369,18.412 27.282,28.454 10.913,10.042 19.099,20.922 28.192,22.595 9.096,1.674 17.279,0.837 17.279,0.837 0,0 19.101,-12.555 29.101,-20.085 10.007,-7.532 29.104,-25.816 29.104,-25.816 -0.079,0 8.3,-2.753 12.491,-8.682 0.706,-1 2.151,-0.205 7.503,-0.677 2.119,-0.187 5.498,-2.582 7.371,-2.835 3.557,-0.482 8.733,-0.157 8.509,-1.325 2.239,-3.14 -4.784,-19.375 -3.839,-22.338 1.216,-3.806 -9.482,1.743 -9.299,0.584 -4.548,1.674 -17.28,-3.348 -21.829,-1.676 L 24.68,-9.245 C 13.602,-3.713 2.161,-6.576 0,0"
               style="fill:#fcfffb;fill-opacity:1;fill-rule:evenodd;stroke:none"
               id="path4964"
               inkscape:connector-curvature="0" />
          </g>
        </g>
      </g>
    </g>
    <g
       id="g4966"
       transform="matrix(1.6137701,0,0,-1.6137701,301.09325,830.51033)">
      <path
         d="m 0,0 c 0,0 79.071,4.01 93.684,3.06 14.612,-0.951 25.72,-0.887 30.295,0.472 4.576,1.359 5.462,2.851 5.462,2.851 0,0 -4.129,14.805 -11.217,21.053 -7.085,6.247 -33.651,24.716 -34.092,25.803 -0.445,1.086 -5.462,2.446 -9.152,5.706 -3.691,3.259 -1.918,3.663 -7.233,6.247 -5.313,2.58 -5.463,4.073 -7.528,5.161 -2.067,1.085 -2.803,2.581 -5.017,3.94 -2.216,1.358 -2.511,0.544 -5.314,1.765 -2.804,1.221 -3.247,4.344 -5.756,5.43 -2.508,1.088 0.59,-4.074 0,-7.468 -0.589,-3.397 -4.867,-1.69 -5.901,-3.863 -1.033,-2.174 -1.921,-7.137 -1.921,-7.137 0,0 2.803,-3.668 2.803,-6.927 0,-3.26 -3.482,-1.762 -1.119,-5.158 2.361,-3.395 0.677,-3.537 1.119,-7.881 0.444,-4.347 -6.197,-16.688 -7.676,-20.762 -1.474,-4.074 5.905,9.624 7.528,9.49 1.624,-0.137 -2.066,-3.261 -2.655,-6.247 -0.053,-0.261 0.842,-1.921 2.152,-4.212 0.732,-1.282 1.595,-2.764 2.495,-4.308 3.206,-5.506 6.881,-11.82 6.802,-12.837 -0.066,-0.865 -4.245,4.113 -7.71,8.036 -2.425,2.747 -4.5,4.98 -4.556,4.316 -0.096,-1.129 2.282,-4.729 2.154,-5.762 C 37.453,9.184 37.269,7.729 36.948,6.785 35.583,2.761 33.063,22.545 30.11,18.877 29.088,17.61 28.737,12.528 27.855,11.015 26.183,8.155 24.089,8.614 22.352,5.416 c -2.658,-4.889 0.674,16.857 0.674,16.857 0,0 -6.44,-12.659 -7.918,-14.155 C 13.633,6.626 9.065,4.435 7.442,3.211 c -1.626,-1.223 5.4,10.777 5.4,10.777 0,0 -5.46,-4.617 -6.936,-6.655 C 4.429,5.297 2.389,5.958 0.591,4.161 c -1.799,-1.799 0,7.112 0,7.112 0,0 -1.772,-5.296 -2.657,-6.926 -0.885,-1.63 1.523,10.756 -0.978,7.055 C -5.545,7.703 -16.857,3.184 -16.857,3.184 -16.857,3.184 0.591,0.814 0,0"
         style="fill:#004777;fill-opacity:1;fill-rule:evenodd;stroke:none"
         id="path4968"
         inkscape:connector-curvature="0" />
    </g>
    <g
       id="g4970"
       transform="matrix(1.6137701,0,0,-1.6137701,-311.12287,1074.5206)">
      <g
         id="g4972" />
      <g
         id="g4978">
        <g
           clip-path="url(#clipPath4974)"
           id="g4980"
           style="opacity:0.80000299">
          <g
             transform="translate(447.0225,213.041)"
             id="g4982">
            <path
               d="m 0,0 c -0.213,0.062 0.541,-0.72 4.18,-2.14 0.84,-0.327 0.857,-2.101 2.162,-2.297 6.97,-1.049 3.763,-0.661 6.345,-2.568 1.21,-0.896 2.229,-0.4 0.478,1.81 -0.857,1.081 -2.498,2.8 -4.12,4.458 C 6.678,1.684 4.346,3.966 4.561,3.91 7.077,3.285 18.87,-4.626 20.927,-6.837 c 3.427,-3.685 5.773,-6.148 9.062,-8.781 5.149,-4.126 2.446,-4.7 7.266,-7.734 0.876,-0.552 2.424,-2.735 3.187,-3.305 1.897,-1.42 0.983,-0.046 0.653,3.263 1.386,0 5.46,-4.152 9.308,-8.42 0.891,-0.989 -0.01,1.412 0.822,0.461 0.947,-1.08 11.994,-3.392 14.003,-9.492 0.689,-2.093 0.899,5.056 -5.134,8.77 5.663,-2.379 9.249,-5.352 8.595,-4.553 0.849,0.849 2.643,-0.852 5.577,0.849 2.427,-2.512 -4.912,-9.931 -7.938,-11.534 -0.369,-0.196 -8.085,-2.096 -11.107,0.53 -2.136,1.858 -0.638,-1.728 -2.904,0.211 -3.177,2.725 -9.932,10.749 -10.996,11.03 -1.158,0.305 2.15,-3.293 5.752,-7.193 4.009,-4.337 8.385,-9.047 7.369,-9.147 -1.497,-0.147 -5.794,-3.328 -5.984,-3.184 -0.948,0.697 -4.767,5.549 -8.985,10.948 -4.619,5.905 -9.717,12.459 -12.069,14.927 -1.486,1.562 -2.695,3.269 -3.763,4.895 -1.483,2.257 -2.698,4.359 -4.008,5.711 -2.359,2.433 -2.723,3.056 0.264,-3.427 0.691,-1.498 1.084,-2.882 2.34,-5.111 2.509,-4.448 7.754,-6.502 7.754,-6.502 l 10.934,-16.713 c -1.365,0.664 -2.845,1.933 -4.359,3.467 -1.753,1.775 6.747,-11.574 5.034,-9.645 -2.034,2.286 -14.244,19.771 -15.823,20.589 -0.632,0.329 -4.84,4.283 -5.248,4.489 -1.241,0.626 4.488,-7.968 9.289,-15.845 3.753,-6.162 6.944,-11.884 5.796,-12.421 -0.532,0.531 -1.885,2.565 -3.69,5.42 -1.197,1.892 -2.592,4.143 -4.077,6.562 -1.386,2.259 -1.104,-1.141 -2.564,1.247 -5.1,8.347 -11.869,22.34 -13.103,23.591 -2.539,2.566 -4.822,3.5 -4.822,3.5 l 6.91,-9.321 c 0,0 -11.478,10.024 -8.434,6.756 3.044,-3.272 4.824,-5.607 4.824,-5.607 l 1.776,-2.8 1.775,-3.037 c 0,0 9.062,-11.442 5.764,-8.641 -2.373,2.013 -3.273,2.096 -0.59,-2.456 1.052,-1.787 5.372,-6.134 5.513,-6.909 0.135,-0.734 6.145,-6.046 1.793,-3.23 -0.8,0.521 -5.476,4.391 -7.404,6.794 -0.604,0.751 -1.169,1.522 -1.638,2.253 -3.673,5.715 -7.129,7.602 -8.779,11.371 -2.793,0.466 6.6,-11.654 6.234,-13.658 -2.966,1.783 -19.418,30.589 -21.956,31.989 -2.538,1.401 6.74,-12.731 8.13,-14.12 -6.595,0 -13.135,18.29 -14.98,20.659 -1.847,2.37 -3.009,7.092 -3.189,7.06 -0.123,-0.022 2.603,-3.514 4.5,-5.566 0.865,-0.932 1.837,-1.819 3.256,-2.428 4.54,-1.953 3.552,-1.168 5.328,-3.5 1.778,-2.337 0.507,-1.406 3.3,-4.439 2.792,-3.036 -0.252,5.138 -0.252,5.138 l -11.312,9.651 c -0.303,0.257 14.863,-8.597 17.401,-9.887 2.538,-1.287 2.766,-1.488 5.764,-3.503 3.734,-2.509 8.366,-8.278 9.742,-9.653 0.239,1.377 -7.232,9.644 -9.88,12.076 -2.791,2.571 -4.865,5.987 -4.865,5.987 L 0,-6.773 -3.047,-2.102 c 0,0 0.253,0.466 -2.028,3.269 -2.285,2.804 -4.898,6.652 -4.898,6.652 0,0 7.942,-4.082 9.973,-7.819"
               style="fill:#005e91;fill-opacity:1;fill-rule:evenodd;stroke:none"
               id="path4984"
               inkscape:connector-curvature="0" />
          </g>
        </g>
      </g>
    </g>
    <g
       id="g4986"
       transform="matrix(1.6137701,0,0,-1.6137701,-311.12287,1074.5206)">
      <g
         id="g4988" />
      <g
         id="g4994">
        <g
           clip-path="url(#clipPath4990)"
           id="g4996"
           style="opacity:0.80000299">
          <g
             transform="translate(418.9077,190.6074)"
             id="g4998">
            <path
               d="m 0,0 c 0,0 1.168,3.1 2.22,5.022 0.482,-0.896 2.266,-5.763 2.871,-7.307 0.507,-1.291 2.562,-7.606 3.12,-7.986 0.562,-0.383 0.512,4.223 0.35,5.486 -0.261,2.034 0.9,5.076 1.535,2.231 0.761,-3.968 0.508,-5.369 0.508,-5.369 0.675,-0.932 8.514,-11.13 9.19,-12.064 0.931,-0.619 -5.299,8.012 -4.369,7.392 0,0 2.763,-1.73 5.168,-4.175 2.028,-2.06 3.8,-4.622 3.452,-7.078 1.206,-0.502 10.034,-9.311 12.069,-10.524 1.247,-0.745 -4.466,6.247 -3.082,5.387 0.888,-0.552 1.789,-1.115 2.685,-1.674 4.949,-3.08 9.788,-6.044 11.572,-6.327 0.447,0.509 -8.209,7.829 -7.799,8.752 0.14,0.304 6.144,-4.586 8.066,-5.413 -0.772,0.771 -1.549,2.99 -2.772,4.606 -2.04,2.691 -5.696,7.312 -8.803,10.843 -1.81,1.928 -4.149,3.287 -6.241,5.018 -3.483,2.889 -6.258,5.374 -4.672,2.688 0.464,-0.571 1.009,-1.249 1.596,-1.99 3.177,-4.011 7.639,-9.824 7.572,-9.948 0.191,-0.191 -7.315,4.23 -9.146,5.768 -1.424,1.197 -0.938,2.687 -1.798,5.002 -0.505,1.626 -0.567,2.896 -0.507,3.952 0.124,2.13 0.741,3.395 -0.785,4.953 -1.034,1.058 -3.082,5.138 -5.498,8.841 -0.547,0.837 -1.989,0.711 -2.537,1.498 -2.365,3.408 -4.953,13.687 -4.953,13.687 0,0 0.576,-4.834 0.387,-8.8 0.222,-0.715 1.775,-4.322 2.076,-4.981 0.746,-1.659 1.735,-3.559 2.66,-5.304 1.074,-2.025 2.062,-3.832 2.493,-4.799 1.777,-3.969 1.08,-5.31 1.08,-5.31 0.764,-1.012 1.524,-2.024 2.284,-3.036 0,0 -3.806,0.933 -4.567,3.969 -0.762,3.036 -1.521,1.4 -1.521,4.669 0,3.271 -0.858,5.223 -0.858,5.223 C 13.55,3.659 11.441,4.431 11.34,4.469 8.801,4.933 6.491,6.356 4.208,8.693 1.927,11.026 4.813,5.393 4.813,5.393 4.532,6.164 3.737,7.452 2.909,8.768 2.604,9.254 2.297,9.743 2.008,10.216 c -0.589,0.956 -1.091,1.829 -1.3,2.41 1.05,1.867 0.182,2.917 -0.832,4.239 -0.782,2.142 -0.821,4.688 -0.567,6.557 0.143,-1.102 -1.25,6.312 -1.376,3.659 C -2.203,24.213 -4.556,14.58 -2.566,12.64 0.226,8.905 -0.252,0.47 0,0"
               style="fill:#005e91;fill-opacity:1;fill-rule:evenodd;stroke:none"
               id="path5000"
               inkscape:connector-curvature="0" />
          </g>
        </g>
      </g>
    </g>
    <g
       id="g5002"
       transform="matrix(1.6137701,0,0,-1.6137701,355.40194,736.9228)">
      <path
         d="m 0,0 c 0,0 -0.844,-1.494 -3.987,-5.704 -6.075,-8.144 -4.093,-2.135 -6.75,-5.529 -2.932,-3.748 -6.361,-13.113 -7.497,-14.157 -1.477,-1.359 2.736,10.588 0.523,9.092 -2.215,-1.494 -1.626,-0.134 -4.429,-2.988 -2.803,-2.851 0,1.088 2.51,5.164 2.508,4.071 3.986,3.799 5.313,7.06 1.327,3.259 1.475,4.344 1.475,4.344 0,0 3.543,3.397 4.429,4.618 0.886,1.226 2.067,4.077 2.067,4.077 0,0 -2.657,-3.262 -4.872,-4.483 -2.217,-1.222 -5.167,-2.444 -5.46,-3.938 -0.297,-1.494 -0.886,-2.716 -2.216,-4.889 -1.328,-2.174 0,3.665 -2.213,0 -2.214,-3.666 -3.099,-3.942 -5.461,-6.383 -2.361,-2.446 1.032,-2.855 -2.511,-6.25 -3.541,-3.394 0,-4.345 -4.574,-7.059 -4.576,-2.718 3.1,7.468 -3.543,1.627 -6.641,-5.839 -3.394,-4.211 -8.413,-8.554 -5.019,-4.347 -1.918,-4.753 -7.674,-8.967 -2.19,-1.598 -0.18,1.902 2.825,6.526 1.83,2.817 4.03,6.05 5.876,8.804 3.096,4.611 5.199,7.872 2.909,5.552 -2.467,-2.494 -5.063,-4.726 -7.616,-6.814 -3.561,-2.91 -7.036,-5.542 -9.956,-8.229 -1.491,-1.376 1.448,4.917 4.266,10.831 2.501,5.256 4.904,10.212 4.011,9.228 -0.928,-1.02 -10.545,-12.866 -18.27,-16.052 -4.161,-4.224 -6.422,-9.346 -6.874,-9.386 -3.013,-0.259 1.525,8.17 -1.33,6.032 -0.857,-0.643 -8.485,-5.207 -10.773,-5.519 -2.285,-0.318 6.257,7.067 6.528,7.446 2.669,3.724 -22.239,-12.13 -25.016,-12.246 -5.435,-0.227 -13.677,-2.416 0.847,4.769 -3.28,0.05 -23.678,-2.777 -26.728,-3.835 -2.372,-0.824 -15.221,0.843 -11.166,-1.959 -5.002,-4.065 11.503,-7.24 12.212,-9.724 -9.96,-1.446 29.389,-1.863 32.082,-2.53 2.712,-0.676 22.023,4.693 21.227,4.34 -1.716,-0.764 26.125,1.359 28.636,-0.54 2.509,-1.904 3.484,3.632 5.256,4.312 1.771,0.679 3.452,1.525 7.29,6.008 2.94,3.432 2.935,2.961 4.296,4.628 0.417,0.507 -1.778,-13.636 -0.982,-12.555 1.24,1.687 4.617,14.8 5.726,16.221 1.923,2.465 4.086,7.808 4.832,9.36 1.183,2.446 1.919,0.408 -0.146,-3.665 -2.064,-4.074 -0.591,-2.986 -1.919,-6.383 -1.328,-3.396 -1.772,-2.99 -1.772,-4.754 0,-1.766 -2.315,-9.183 -2.315,-9.183 l 5.762,5.839 c 3.393,1.9 0.541,5.108 2.163,7.554 1.622,2.445 -0.296,-2.777 1.18,-0.603 1.476,2.173 -1.476,4.544 1.033,8.209 1.81,2.641 -0.448,-6.837 1.03,-5.504 0.574,0.515 4.575,11.036 5.317,12.022 2.657,3.531 -1.181,1.63 2.803,5.162 1.773,1.568 2.232,2.389 2.352,3.085 0.147,0.873 -0.235,1.563 0.749,3.3 1.771,3.121 5.314,8.96 5.018,6.243 -0.296,-2.716 -2.097,-18.8 -2.835,-20.567 -0.737,-1.765 1.506,12.15 0.031,8.756 -0.6,-1.385 -2.005,-3.481 -3.438,-5.642 -2.098,-3.149 -4.258,-6.427 -4.084,-7.802 2.066,2.659 -5.307,-15.028 -3.875,-13.865 1.247,1.015 4.272,5.2 6.683,8.501 1.553,2.125 2.852,3.883 3.252,4.188 0.392,0.293 -0.638,-3.684 -1.951,-8.243 -1.531,-5.302 -3.444,-11.392 -3.946,-12.436 0.966,0.516 2.154,1.174 3.376,3.285 0.537,0.931 2.072,0.96 2.605,2.023 1.298,2.585 1.55,7.372 2.511,9.651 1.112,2.638 1.843,4.55 1.843,4.55 0,0 -5.042,-8.174 -4.099,-4.596 0.963,3.674 7.91,19.091 8.06,18.129 0.486,-3.134 0.197,-2.305 1.275,3.988 0.445,2.579 -3.194,6.01 -2.603,7.638 0.59,1.632 0.149,3.803 0.149,3.803 l 0.147,3.259 c 0,0 -0.887,2.038 -1.181,2.309"
         style="fill:#004c77;fill-opacity:1;fill-rule:evenodd;stroke:none"
         id="path5004"
         inkscape:connector-curvature="0" />
    </g>
    <g
       id="g5006"
       transform="matrix(1.6137701,0,0,-1.6137701,-311.12287,1074.5206)">
      <g
         id="g5008">
        <g
           id="g5014">
          <g
             id="g5016">
            <path
               d="m 413.358,242.597 c -0.21,0.203 -0.788,0.28 -1.015,0.396 l 0,0 c -2.195,1.093 -4.948,-1.636 -4.94,-1.636 l 0,0 c -0.662,-0.94 -1.325,-1.882 -1.987,-2.826 l 0,0 c 0,0 -1.083,-0.941 -2.166,-1.33 l 0,0 c -1.084,-2.161 -1.446,-2.824 -3.431,-2.99 l 0,0 c -1.988,-0.167 -2.888,-1.496 -2.888,-1.496 l 0,0 c 0,0 -0.363,-1.163 -1.628,-3.492 l 0,0 c -1.264,-2.322 -1.445,-0.996 -5.961,-6.479 l 0,0 c -0.844,-1.029 -3.525,-2.424 -4.382,-3.473 l 0,0 c -3.719,-4.546 -6.996,-9.324 -6.996,-9.324 l 0,0 c 3.614,3.156 7.673,5.086 11.283,8.242 l 0,0 c 0.316,-0.146 0.921,2.932 3.041,3.869 l 0,0 c 3.069,0.498 0.287,-0.128 -0.98,-2.121 l 0,0 c -1.262,-1.996 0.745,-2.677 -4.314,-6.002 l 0,0 c -3.367,-3.943 -4.203,-5.656 -4.971,-7.857 l 0,0 c 0,0 4.576,4.551 7.465,6.377 l 0,0 c 0.572,0.278 0.476,0.093 0.379,-0.091 l 0,0 c -0.096,-0.184 -0.192,-0.368 0.379,-0.091 l 0,0 c 0,0 0.722,0 3.973,2.492 l 0,0 c 3.252,2.495 -2.71,-6.98 -2.71,-6.98 l 0,0 c 0.782,0.498 6.443,5.985 7.227,6.485 l 0,0 c 0.329,0.081 0.39,-0.084 0.449,-0.251 l 0,0 c 0.06,-0.166 0.121,-0.332 0.453,-0.249 l 0,0 c 0.784,0.386 2.647,1.773 3.431,2.16 l 0,0 c 0,0 1.084,5.153 3.069,6.647 l 0,0 c 1.989,1.496 -1.081,-3.49 1.087,-4.488 l 0,0 c 0.031,0.022 0.335,-0.249 0.636,-0.519 l 0,0 c 0.302,-0.269 0.602,-0.538 0.632,-0.517 l 0,0 c 1.868,1.233 1.838,0.727 2.704,1.036 l 0,0 c -0.481,-0.663 -0.964,-1.329 -1.445,-1.993 l 0,0 c 0,-0.066 -1.875,-1.22 -2.157,-3.602 l 0,0 c -0.416,-3.539 -1.2,-2.809 -1.752,-3.346 l 0,0 c -0.346,-0.458 -0.145,0.872 0.065,2.201 l 0,0 c 0.218,1.385 0.443,2.769 0.064,2.135 l 0,0 c -1.604,-2.683 -5.011,-11.313 -5.24,-11.669 l 0,0 c 0.141,0.157 1.73,1.929 4.144,4.309 l 0,0 c 2.527,2.492 4.152,1.661 4.152,1.661 l 0,0 c 0,0 0.132,1.983 2.771,3.898 l 0,0 c 0.882,0.639 2.681,1.512 4.092,1.256 l 0,0 c 3.679,2.847 -0.581,4.953 1.503,6.941 l 0,0 c 0.301,-0.998 2.563,-3.634 2.862,-4.63 l 0,0 c 0.724,-0.833 -0.031,-2.478 0.696,-3.309 l 0,0 c 0,0 0.176,-1.328 0.176,-2.992 l 0,0 c 0,-1.662 0,-0.996 0.905,-3.823 l 0,0 c 0.902,-2.825 0,-3.155 1.082,-4.984 l 0,0 c 1.446,-2.327 2.365,-3.431 2.365,-3.431 l 0,0 c 6.142,-3.06 8.435,-2.205 4.319,-0.227 l 0,0 c -0.963,0.556 -0.662,1.439 -1.627,1.997 l 0,0 c -0.255,-0.355 -2.396,1.593 -1.803,6.149 l 0,0 c 0.073,0.873 0.266,0.811 0.48,0.748 l 0,0 c 0.381,-0.111 0.827,-0.223 0.781,4.903 l 0,0 c 1.085,4.817 -1.148,-0.755 -1.148,-0.755 l 0,0 c -0.121,1.276 -0.535,5.128 -0.656,6.404 l 0,0 c 0.299,1.438 -3.226,5.043 -2.937,6.49 l 0,0 c 0.057,-0.175 3.21,-3.966 5.425,-5.536 l 0,0 c 1.032,-0.732 2.465,-0.903 4.014,-2.614 l 0,0 c 4.695,-5.487 0.721,-3.657 2.71,-4.821 l 0,0 c 1.985,-1.166 1.624,-0.5 3.792,-2.162 l 0,0 c 1.898,-1.506 0.959,-0.427 5.97,-2.452 l 0,0 c 0.52,-0.207 0.957,-2.464 1.614,-2.7 l 0,0 c 3.133,-1.246 4.671,-1.296 5.284,-1.392 l 0,0 c 1.909,-0.299 1.515,-0.146 2.321,-0.434 l 0,0 c 0.875,-0.313 1.476,-0.235 1.648,-0.408 l 0,0 c 6.879,-6.956 1.165,1.729 -3.671,3.244 l 0,0 c -1.804,1.663 -3.774,1.318 -3.774,1.318 l 0,0 c -0.783,0.886 -1.564,1.772 -2.351,2.657 l 0,0 c 0,0 -0.202,-0.265 -2.009,1.064 l 0,0 c -3.898,2.351 -4.742,7.084 -7.476,10.769 l 0,0 c -0.364,0.776 -0.805,0.983 -1.169,1.758 l 0,0 c 0,0 -1.494,1.41 0.622,0.332 l 0,0 c 0.731,0.365 2.933,-1.242 5.008,-2.85 l 0,0 c 3.344,-2.59 6.362,-5.179 2.383,0.484 l 0,0 c -0.258,0.368 -1.133,1.827 -1.436,2.193 l 0,0 c -1.335,1.602 -4.929,4.556 -6.5,5.43 l 0,0 c 3.38,0.654 8.954,-4.388 12.928,-6.381 l 0,0 c 3.045,-2.742 4.936,-4.501 7.137,-6.382 l 0,0 c 1.322,-1.13 2.06,-2.941 5.172,-3.245 l 0,0 c 0.741,-0.479 5.618,-3.064 5.97,-3.184 l 0,0 c 1.959,-0.653 -4.252,4.033 -8.089,8.942 l 0,0 c -1.247,1.596 -1.44,3.374 -3.187,2.995 l 0,0 c -0.173,0.556 -1.52,2.195 -3.028,1.54 l 0,0 c -1.806,2.325 -4.156,1.825 -7.949,5.151 l 0,0 c -0.868,1.973 -3.792,5.366 -6.843,4.965 l 0,0 c -2.456,0.992 -2.859,2.808 -5.259,4.839 l 0,0 c -4.516,3.823 -4.175,2.245 -6.163,3.408 l 0,0 c -1.985,1.164 -1.308,1.019 -3.116,2.18 l 0,0 c -1.805,1.163 -2.36,1.471 -2.36,1.471 l 0,0 c 0,0 -1.184,0.42 -2.99,0.919 l 0,0 c -0.516,0.143 -0.87,0.21 -1.172,0.21 l 0,0 c -0.754,0 -1.182,-0.419 -2.987,-1.131 m 9.532,-20.171 c 0,0 0,0 0,0 m -22.168,-20.623 c 0.002,0 0.006,0.004 0.01,0.012 l 0,0 c -0.006,-0.008 -0.01,-0.012 -0.01,-0.012"
               style="fill:url(#linearGradient5018);stroke:none"
               id="path5028"
               inkscape:connector-curvature="0" />
          </g>
        </g>
      </g>
    </g>
    <g
       id="g5030"
       transform="matrix(1.6137701,0,0,-1.6137701,-311.12287,1074.5206)">
      <g
         id="g5032"
         clip-path="url(#clipPath5034)">
        <g
           id="g5038"
           transform="translate(420.8433,241.3848)">
          <path
             d="M 0,0 C 0,0 1.936,0.1 5.31,-2.629 3.943,-2.805 1.772,-2.307 4.431,-3.801 7.423,-4.205 8.827,-6.002 10.45,-5.46 c 1.703,-1.686 1.803,-1.622 3.425,-2.978 0.712,-0.594 2.545,-1.782 2.77,-2.403 -0.386,-0.103 -1.146,-0.974 -1.146,-0.974 -0.294,-0.905 -0.148,-0.317 -0.443,-1.221 0,0 1.475,1.221 3.102,0.406 2.297,0.431 6.269,-3.605 8.078,-5.03 -3.919,1.829 -6.062,3.385 -7.537,2.431 -1.479,-0.949 -3.806,-0.033 -3.494,-0.114 0.332,-0.444 1.19,-0.524 1.614,-0.821 1.269,-0.883 2.229,-1.437 2.229,-1.437 0.493,-0.5 3.165,-4.494 3.659,-4.992 0,0 -5.29,4.532 -8.387,5.889 -3.102,1.361 -2.362,1.767 -3.84,2.988 -1.476,1.222 2.658,0.816 0,2.853 -2.656,2.036 -1.622,0.271 -3.837,1.901 -2.212,1.631 -5.165,2.037 -3.394,0.815 1.771,-1.222 1.474,-1.901 3.394,-2.991 1.918,-1.084 -1.609,0.08 -3.527,1.711 -1.92,1.628 -2.818,1.823 -2.818,1.823 0,0 -0.147,1.086 -1.772,2.583 -1.623,1.492 -3.395,4.615 -2.509,2.306 0.886,-2.306 2.361,-2.174 2.361,-4.076 0,-1.9 0.442,-3.257 0.442,-3.257 0.738,-0.68 1.478,-1.358 2.215,-2.038 0.393,-0.768 0.788,-1.538 1.18,-2.309 0.837,-0.407 1.673,-0.813 2.508,-1.221 1.084,-0.454 2.168,-0.906 3.248,-1.359 0,0 0.149,-0.408 1.624,-1.36 1.477,-0.948 1.707,-0.733 3.184,-1.686 -0.297,1.801 0.38,0.554 0.861,0.263 1.059,-0.641 1.902,-2.418 1.902,-2.418 0,0 6.286,-8.095 6.07,-9.654 -0.006,0.381 2.576,-2.827 0.921,-1.779 -0.755,0.476 -5.231,4.39 -6.21,5.434 -0.74,0.793 -0.669,1.867 -1.513,3.21 -1.361,2.167 -2.09,-0.155 -2.811,0.185 -2.657,1.359 2.067,-1.775 0,-1.233 -0.515,0.1 -3.72,6.439 -4.209,6.849 -1.463,1.221 -2.965,2.268 -2.965,2.303 0,0 0.383,-0.791 -3.016,2.062 -0.447,0.332 -0.582,0.897 -0.859,1.06 -0.254,0.155 -1.358,-0.182 -1.413,-0.067 0.706,1.176 -0.391,1.178 -1.613,1.54 -0.132,0.341 0.302,0.789 0.2,0.939 -0.294,0.438 -2.467,3.076 -2.666,3.074 -0.439,-0.006 1.476,-3.622 1.98,-4.769 0.214,-0.588 -0.097,-1.566 0.462,-2.138 0.133,-0.137 0.933,-1.179 1.205,-1.19 0.4,-0.017 0.3,1.011 0.478,0.841 0.262,-0.314 0.319,-0.906 0.61,-1.339 0.295,-0.429 0.825,-0.701 1.105,-1.085 1.327,-1.902 1.097,-2.518 1.097,-2.518 -0.02,-0.43 0.08,-1.57 1.146,-3.327 0.127,-0.209 -0.146,-0.631 -0.057,-0.832 0.38,-0.883 0.427,-1.634 0.479,-1.799 1.844,-5.586 0.13,-1.646 -0.123,-1.823 -0.42,-0.293 -2.021,5.325 -2.67,6.173 -0.168,0.616 -0.25,1.445 -0.398,1.92 -1.222,3.889 -2.526,3.166 -2.767,3.278 -0.811,0.327 -2.844,-3.956 -2.844,-3.956 0,0 -1.242,-3.749 -0.505,-0.897 0.553,2.136 0.7,3.173 0.804,4.219 0.036,0.349 0.744,0.45 0.557,0.929 -0.739,1.9 0.345,0.055 0.198,2.227 -0.149,2.175 0.33,0.276 0.184,1.771 -0.147,1.494 -1.416,2.112 -1.416,3.606 0,1.494 1.329,0.543 0.148,2.037 -1.18,1.494 -1.476,2.445 -1.034,2.988 0.444,0.542 -1.556,4.736 -1.556,4.736 0,0 1.852,-0.524 3.181,-1.07 1.327,-0.541 1.708,-0.599 1.708,-0.599 0,0 0.062,-1.166 1.982,-1.845 0.28,-0.103 1.901,-0.335 1.911,-0.211 0.029,0.452 -1.639,0.888 -2.347,1.621 C -1.888,-0.416 -2.569,0.598 -3.192,0.58 -5.258,0.444 -7.38,1.228 -7.38,1.228 -5.706,1.361 -6.134,1.94 -3.688,1.77 -3.688,1.77 0,-0.271 0,0"
             style="fill:#a6cee5;fill-opacity:1;fill-rule:evenodd;stroke:none"
             id="path5040"
             inkscape:connector-curvature="0" />
        </g>
        <g
           id="g5042"
           transform="translate(399.2261,233.7412)">
          <path
             d="m 0,0 c 0,0 -1.284,0.182 -2.223,-1.502 -0.939,-1.686 -1.729,-3.779 -1.729,-3.779 0,0 0.492,0.321 -0.496,-0.638 -0.987,-0.956 -3.209,-2.14 -3.656,-3.187 -0.445,-1.048 2.719,1.959 3.954,2.369 1.235,0.408 2.223,1.412 3.063,1.912 0.839,0.5 -0.691,1.321 0.791,2.229 1.482,0.91 0.94,0.592 2.521,1.276 1.581,0.68 2.224,0.456 1.186,-1.046 -1.037,-1.505 -0.643,-1.32 -1.385,-2.14 -0.741,-0.819 -0.939,-0.413 -2.274,-2.277 -1.333,-1.866 -2.171,-1.596 -2.569,-3.188 -0.394,-1.593 -1.927,-2.456 -2.37,-3.05 -0.447,-0.591 3.705,3.28 5.435,4.552 1.73,1.274 1.433,2.004 2.817,3.006 1.384,1.003 2.174,1.821 3.162,2.551 0.989,0.728 0.348,1.456 1.979,2.774 1.628,1.322 1.925,2.596 2.419,3.688 0.494,1.096 0.693,-2.594 -0.098,-3.958 C 9.737,-1.777 8.797,-1.64 8.303,-2.64 7.809,-3.642 7.019,-4.735 6.919,-4.96 c -0.1,-0.231 2.469,2.002 3.706,2.912 1.236,0.908 1.729,2.364 1.977,3.412 0.248,1.048 -0.445,1.824 -0.099,2.778 0.347,0.956 -0.74,1.639 0.247,2.277 0.99,0.638 1.138,1.412 0.395,1.685 -0.741,0.271 -2.223,-0.411 -1.974,0 0.245,0.411 0.937,1.365 0.147,1.183 C 10.527,9.104 8.944,8.423 8.303,7.559 7.662,6.689 8.797,6.737 7.958,5.644 7.116,4.552 8.598,4.689 7.958,4.052 7.315,3.417 6.525,3.825 5.535,3.55 4.547,3.277 4.102,4.279 4.004,2.594 3.906,0.912 3.906,0.818 3.016,0.226 2.125,-0.364 0.841,-0.456 -0.147,-1.094 -1.136,-1.729 -2.223,-2.64 -2.223,-2.64 c 0,0 0.642,1.456 1.333,1.865 C -0.196,-0.364 -0.098,-0.09 0,0"
             style="fill:#ffffff;fill-opacity:1;fill-rule:nonzero;stroke:none"
             id="path5044"
             inkscape:connector-curvature="0" />
        </g>
      </g>
    </g>
    <g
       id="g5046"
       transform="matrix(1.6137701,0,0,-1.6137701,-311.12287,1074.5206)">
      <g
         id="g5048">
        <g
           id="g5054">
          <g
             id="g5056">
            <path
               d="m 432.475,197.68 c 0.992,-0.995 1.123,-1.953 2.363,-1.953 l 0,0 c 1.236,0 0.676,-1.913 1.351,-2.583 l 0,0 c 0.672,-0.68 1.801,-1.803 1.801,-3.041 l 0,0 c 0,-1.237 0.784,-2.179 1.979,-2.179 l 0,0 c 1.196,0 1.758,-1.757 1.758,-1.297 l 0,0 c 0,0.462 -2.154,3.486 -2.66,3.992 l 0,0 c -0.508,0.506 -0.829,2.381 -0.829,3.329 l 0,0 c 0,0.949 -1.392,0.443 -2.183,2.1 l 0,0 c -0.793,1.653 -2.498,1.632 -2.498,1.632 l 0,0 c 0,2.065 -2.347,3.434 -2.347,3.434 l 0,0 c 0,0 0.272,-2.44 1.265,-3.434"
               style="fill:url(#linearGradient5058);stroke:none"
               id="path5068"
               inkscape:connector-curvature="0" />
          </g>
        </g>
      </g>
    </g>
    <g
       id="g5070"
       transform="matrix(1.6137701,0,0,-1.6137701,-311.12287,1074.5206)">
      <g
         id="g5072">
        <g
           id="g5078">
          <g
             id="g5080">
            <path
               d="m 396.88,207.694 c 0,0 -0.797,-0.097 -1.64,-0.94 l 0,0 c -0.844,-0.843 -0.526,-2.142 -0.844,-2.461 l 0,0 c -0.318,-0.316 -0.282,0.492 -1.127,0.492 l 0,0 c -0.841,0 -0.701,0.14 -1.825,-0.984 l 0,0 c -1.126,-1.126 -0.326,-1.759 -1.126,-2.562 l 0,0 c -0.802,-0.798 -1.195,-1.193 -1.871,-1.868 l 0,0 -0.676,-0.675 c 0,0 -0.655,-2.556 -1.315,-3.213 l 0,0 c -0.66,-0.66 2.033,0.657 2.952,1.576 l 0,0 c 0.919,0.919 0.094,0.808 0.769,1.481 l 0,0 c 0.675,0.676 0.899,1.126 1.349,2.362 l 0,0 c 0.26,0.717 0.892,1.541 1.259,1.989 l 0,0 c 0.01,-0.182 1.029,0.166 0.602,-1.474 l 0,0 c -0.511,-1.974 -2.101,-2.634 -0.977,-2.634 l 0,0 c 1.127,0 1.366,0.66 2.042,1.784 l 0,0 c 0.675,1.125 0,1.911 0.337,2.251 l 0,0 c 0.338,0.336 0.451,1.236 1.238,2.021 l 0,0 c 0.787,0.789 1.292,1.295 2.249,2.252 l 0,0 c 0.957,0.954 1.546,1.23 2.25,1.933 l 0,0 c 0.704,0.704 3.667,3.507 3.667,3.507 l 0,0 c 0,0 -8.313,-3.836 -7.313,-4.837"
               style="fill:url(#linearGradient5082);stroke:none"
               id="path5092"
               inkscape:connector-curvature="0" />
          </g>
        </g>
      </g>
    </g>
    <g
       clip-path="url(#clipPath5098)"
       id="g5096"
       transform="matrix(1.6137701,0,0,-1.6137701,-315.16348,1084.6221)"
       style="display:inline">
      <g
         transform="translate(538.4072,160.6719)"
         id="g5102">
        <path
           inkscape:connector-curvature="0"
           id="path5104"
           style="fill:#012439;fill-opacity:1;fill-rule:evenodd;stroke:none"
           d="m 0,0 c -0.441,10.159 -2.812,19.835 -6.226,29.087 0.066,-4.638 0.309,-9.365 -0.594,-13.835 -1.183,1.45 -2.137,3.755 -2.882,5.655 0.102,-1.601 -0.324,-3.875 -0.478,-5.099 -2.941,8.354 -5.685,16.823 -8.976,25.008 0.213,-9.114 -0.413,-18.321 -1.485,-27.176 -1.582,3.388 -1.816,7.733 -2.197,11.466 -2.091,-1.785 -2.506,-5.629 -2.441,-8.551 -1.391,3.466 -2.34,7.994 -4.058,10.921 -0.351,-5.337 0.128,-10.87 -0.23,-16.206 -2.317,6.159 -0.827,17.753 -4.949,22.052 -0.384,-6.434 0.524,-14.136 -0.994,-20.307 -0.959,2.639 -1.125,5.781 -2.066,8.476 -1.042,-3.046 -1.814,-6.936 -1.772,-10.323 -4.747,3.349 -4.309,11.815 -6.147,17.357 0.068,-4.574 0.006,-9.152 0.035,-13.724 -1.697,7.277 -2.811,16.8 -6.612,23.117 -1.469,-8.433 0.294,-18.718 -3.213,-26.499 -0.683,3.398 -0.985,6.912 -2.208,10.13 -0.516,-3.676 -0.871,-8.178 -2.947,-11.122 -1.613,2.021 -1.852,5.059 -2.742,7.54 -0.72,-1.921 -1.198,-4.606 -1.783,-6.228 -0.35,1.67 -1.535,3.333 -2.079,4.618 -0.579,-1.94 -1.57,-3.907 -2.698,-5.319 -0.384,0.628 -1.668,1.665 -1.978,2.375 0.233,-1.843 -0.509,-3.509 -0.734,-5.172 -1.385,1.771 -2.061,4.994 -3.097,7.513 -0.36,-0.893 -1.579,-2.381 -1.812,-3.881 -1.968,4.751 -3.034,10.22 -4.918,15.044 -1.773,-5.065 -1.161,-11.973 -2.042,-17.513 -1.437,2.18 -2.005,6.358 -2.887,8.736 -0.019,-2.307 -0.554,-4.771 -1.234,-6.954 -4.032,1.352 -4.748,9.731 -7.584,13.257 -0.143,-3.155 -0.099,-6.438 -0.053,-9.642 -2.828,8.547 -5.228,17.356 -7.802,26.027 0.138,-9.255 -0.089,-18.516 0.053,-27.769 -0.651,2.214 -1.08,4.544 -1.679,6.804 -2.346,-2.277 -2.103,-8.518 -5.467,-9.289 -1.33,3.249 -2.029,6.778 -3.63,9.789 -1.225,-3.072 -1.627,-6.942 -3.722,-9.309 -2.246,2.61 -2.748,7.196 -4.656,10.156 -0.747,-3.132 -0.841,-7.16 -1.644,-10.654 -2.483,2.259 -1.606,7.915 -4.029,10.834 -0.747,-2.915 -1.364,-6.788 -3.504,-8.477 -1.027,2.177 -1.619,4.759 -3.112,6.353 -0.105,-2.772 -0.289,-5.61 -1.654,-7.951 -0.36,1.428 -1.302,2.956 -1.575,4.325 0.13,-2.249 -0.675,-2.996 -1.524,-4.602 -0.256,0.582 -1.262,1.851 -1.436,2.379 -0.146,-0.554 -0.136,-1.096 -0.203,-1.666 -2.095,1.6 -2.131,5.367 -2.608,8.116 -0.408,-1.912 -0.337,-5.343 -1.424,-7.396 -0.308,0.848 -0.905,1.657 -1.176,2.701 -0.311,-1.713 -1.252,-3.552 -2.467,-4.578 -0.452,0.921 -1.657,2.092 -1.951,2.821 -0.032,-1.6 -0.845,-2.626 -1.036,-3.415 -0.618,3.312 -1.14,6.562 -2.192,9.796 0.247,-2.335 0.197,-4.7 -0.622,-6.74 -3.331,6.244 -1.968,15.052 -5.463,21.366 -0.48,-7.704 0.229,-16.965 -1.5,-24.304 -1.192,2.813 -1.448,6.129 -2.309,9.148 -1.629,-1.692 -1.796,-7.469 -4.551,-7.582 -3.199,-0.132 -4.291,7.279 -5.721,9.807 0.173,-3.442 0.396,-7.331 -1.885,-9.721 -0.982,1.832 -1.727,3.756 -2.624,5.639 -0.07,-2.153 -0.397,-4.423 -1.525,-5.668 -2.252,4.915 -3.937,10.73 -4.789,16.198 0.022,-3.528 -0.179,-31.011 -5.571,-17.453 -0.254,-11.108 -5.945,-1.97 -7.865,2.795 -0.121,-1.928 -0.874,-3.936 -1.927,-5.052 -0.908,1.843 -1.894,3.839 -3.127,5.186 0.071,-2.377 -0.466,-4.618 -2.167,-5.875 -2.302,2.071 -2.734,5.777 -5.063,7.632 0.194,-2.166 0.136,-4.439 -1.113,-5.877 -0.957,1.074 -2.458,1.787 -3.15,3.375 0.421,-7.235 -3.205,0.376 -4.108,3.092 -2.076,6.237 -3.194,13.305 -5.824,19.204 -1.99,-8.216 0.983,-17.744 0.035,-26.05 -1.177,3.477 -2.211,8.355 -4.57,10.978 -1.378,-2.895 -1.736,-7.029 -2.648,-10.44 -3.208,-0.291 -4.843,5.963 -6.538,8.525 0.378,-9.77 -1.54,-7.5 -6.213,-2.765 0.109,-2.21 -0.106,-4.299 -1.098,-5.931 -4.57,5.715 -4.957,15.902 -8.303,22.77 0.003,-4.765 1.168,-9.726 1.468,-14.355 -2.444,8.267 -4.424,17.092 -6.639,25.444 0.162,-10.81 1.835,-22.388 1.073,-33.014 -0.432,2.573 -1.796,5.418 -3.539,6.827 -0.199,-3.269 0.01,-6.648 -0.195,-9.911 -1.411,2.042 -2.072,5.028 -4.068,6.369 -0.747,-2.421 -0.42,-5.387 -0.565,-8.068 -0.874,-0.506 -0.667,0.772 -0.946,0.509 C -271.27,2.926 0,0 0,0" />
      </g>
      <g
         transform="translate(267.7568,160.6719)"
         id="g5106">
        <path
           inkscape:connector-curvature="0"
           id="path5108"
           style="fill:#012e4e;fill-opacity:1;fill-rule:evenodd;stroke:none"
           d="M 0,0 C 0.45,10.159 2.863,19.835 6.339,29.087 6.272,24.449 6.025,19.722 6.944,15.252 c 1.206,1.45 2.177,3.755 2.935,5.655 -0.104,-1.601 0.331,-3.875 0.487,-5.099 2.996,8.354 5.789,16.823 9.142,25.008 -0.218,-9.114 0.419,-18.321 1.511,-27.176 1.61,3.388 1.849,7.733 2.237,11.466 2.13,-1.785 2.551,-5.629 2.485,-8.551 1.418,3.466 2.384,7.994 4.132,10.921 0.359,-5.337 -0.13,-10.87 0.236,-16.206 2.358,6.159 0.839,17.753 5.037,22.052 0.394,-6.434 -0.533,-14.136 1.014,-20.307 0.977,2.639 1.146,5.781 2.103,8.476 1.062,-3.046 1.849,-6.936 1.805,-10.323 4.834,3.349 4.388,11.815 6.26,17.357 -0.07,-4.574 -0.006,-9.152 -0.036,-13.724 1.728,7.277 2.864,16.8 6.731,23.117 1.497,-8.433 -0.297,-18.718 3.274,-26.499 0.695,3.398 1.002,6.912 2.249,10.13 0.524,-3.676 0.887,-8.178 3.001,-11.122 1.642,2.021 1.885,5.059 2.791,7.54 0.735,-1.921 1.221,-4.606 1.816,-6.228 0.356,1.67 1.563,3.333 2.117,4.618 0.592,-1.94 1.601,-3.907 2.748,-5.319 0.391,0.628 1.699,1.665 2.013,2.375 -0.236,-1.843 0.519,-3.509 0.748,-5.172 1.411,1.771 2.099,4.994 3.155,7.513 0.365,-0.893 1.606,-2.381 1.844,-3.881 2.003,4.751 3.089,10.22 5.01,15.044 1.804,-5.065 1.181,-11.973 2.079,-17.513 1.462,2.18 2.041,6.358 2.939,8.736 0.018,-2.307 0.562,-4.771 1.256,-6.954 4.105,1.352 4.836,9.731 7.725,13.257 0.144,-3.155 0.1,-6.438 0.053,-9.642 2.88,8.547 5.324,17.356 7.944,26.027 -0.14,-9.255 0.09,-18.516 -0.053,-27.769 0.663,2.214 1.1,4.544 1.709,6.804 2.391,-2.277 2.142,-8.518 5.567,-9.289 1.353,3.249 2.067,6.778 3.698,9.789 1.246,-3.072 1.654,-6.942 3.788,-9.309 2.287,2.61 2.798,7.196 4.743,10.156 0.759,-3.132 0.856,-7.16 1.673,-10.654 2.528,2.259 1.636,7.915 4.103,10.834 0.761,-2.915 1.388,-6.788 3.568,-8.477 1.046,2.177 1.648,4.759 3.169,6.353 0.107,-2.772 0.294,-5.61 1.683,-7.951 0.368,1.428 1.328,2.956 1.607,4.325 -0.134,-2.249 0.685,-2.996 1.55,-4.602 0.26,0.582 1.284,1.851 1.461,2.379 0.15,-0.554 0.14,-1.096 0.207,-1.666 2.135,1.6 2.171,5.367 2.657,8.116 0.415,-1.912 0.342,-5.343 1.45,-7.396 0.313,0.848 0.921,1.657 1.197,2.701 0.316,-1.713 1.275,-3.552 2.513,-4.578 0.459,0.921 1.687,2.092 1.987,2.821 0.032,-1.6 0.859,-2.626 1.054,-3.415 0.629,3.312 1.16,6.562 2.232,9.796 -0.251,-2.335 -0.201,-4.7 0.633,-6.74 3.393,6.244 2.006,15.052 5.564,21.366 0.488,-7.704 -0.233,-16.965 1.527,-24.304 1.213,2.813 1.474,6.129 2.352,9.148 1.659,-1.692 1.828,-7.469 4.633,-7.582 3.258,-0.132 4.37,7.279 5.825,9.807 -0.175,-3.442 -0.403,-7.331 1.921,-9.721 1.002,1.832 1.759,3.756 2.671,5.639 0.072,-2.153 0.405,-4.423 1.553,-5.668 2.293,4.915 4.009,10.73 4.877,16.198 -0.022,-3.528 0.184,-31.011 5.673,-17.453 0.259,-11.108 6.056,-1.97 8.01,2.795 0.122,-1.928 0.891,-3.936 1.962,-5.052 0.926,1.843 1.929,3.839 3.182,5.186 -0.071,-2.377 0.476,-4.618 2.208,-5.875 2.345,2.071 2.784,5.777 5.155,7.632 -0.196,-2.166 -0.136,-4.439 1.135,-5.877 0.974,1.074 2.502,1.787 3.207,3.375 -0.428,-7.235 3.263,0.376 4.183,3.092 2.113,6.237 3.253,13.305 5.931,19.204 2.026,-8.216 -1.002,-17.744 -0.035,-26.05 1.198,3.477 2.251,8.355 4.653,10.978 1.402,-2.895 1.768,-7.029 2.696,-10.44 3.268,-0.291 4.932,5.963 6.658,8.525 -0.385,-9.77 1.568,-7.5 6.325,-2.765 -0.11,-2.21 0.11,-4.299 1.119,-5.931 4.655,5.715 5.048,15.902 8.456,22.77 -0.005,-4.765 -1.189,-9.726 -1.496,-14.355 2.489,8.267 4.507,17.092 6.761,25.444 -0.164,-10.81 -1.868,-22.388 -1.092,-33.014 0.439,2.573 1.829,5.418 3.603,6.827 0.204,-3.269 -0.011,-6.648 0.199,-9.911 1.437,2.042 2.111,5.028 4.144,6.369 0.759,-2.421 0.427,-5.387 0.574,-8.068 0.889,-0.506 0.68,0.772 0.964,0.509 C 276.236,2.926 0,0 0,0" />
      </g>
      <path
         inkscape:connector-curvature="0"
         id="path5110"
         style="fill:#ffffff;fill-opacity:1;fill-rule:evenodd;stroke:none"
         d="m 262.22625,166.69613 284.212,0 0,-20.371 -284.212,0 0,20.371 z" />
      <g
         transform="translate(266.94813,143.9949)"
         id="g5112">
        <path
           inkscape:connector-curvature="0"
           id="path5114"
           style="fill:#012e4e;fill-opacity:1;fill-rule:nonzero;stroke:none"
           d="m 0,0 32.757,0.137 32.753,0.068 32.755,0.064 16.378,0.032 c 5.461,0.002 10.919,0.073 16.378,-0.194 0.059,-0.003 0.103,-0.055 0.101,-0.112 -0.002,-0.056 -0.048,-0.095 -0.101,-0.098 -5.459,-0.27 -10.917,-0.199 -16.378,-0.199 L 98.265,-0.266 65.51,-0.199 32.757,-0.136 0,0 Z" />
      </g>
      <g
         transform="translate(268.88605,144.03402)"
         id="g5116">
        <path
           inkscape:connector-curvature="0"
           id="path5118"
           style="fill:#012e4e;fill-opacity:1;fill-rule:nonzero;stroke:none"
           d="m 0,0 c 0,-0.229 -0.184,-0.415 -0.415,-0.415 -0.229,0 -0.416,0.186 -0.416,0.415 0,0.23 0.187,0.416 0.416,0.416 C -0.184,0.416 0,0.23 0,0" />
      </g>
      <g
         transform="translate(271.42805,144.03402)"
         id="g5120">
        <path
           inkscape:connector-curvature="0"
           id="path5122"
           style="fill:#012e4e;fill-opacity:1;fill-rule:nonzero;stroke:none"
           d="m 0,0 c 0,-0.262 -0.208,-0.471 -0.469,-0.471 -0.26,0 -0.47,0.209 -0.47,0.471 0,0.259 0.21,0.472 0.47,0.472 C -0.208,0.472 0,0.259 0,0" />
      </g>
      <g
         transform="translate(274.43095,144.03402)"
         id="g5124">
        <path
           inkscape:connector-curvature="0"
           id="path5126"
           style="fill:#012e4e;fill-opacity:1;fill-rule:nonzero;stroke:none"
           d="m 0,0 c 0,-0.281 -0.229,-0.513 -0.511,-0.513 -0.284,0 -0.512,0.232 -0.512,0.513 0,0.28 0.228,0.51 0.512,0.51 C -0.229,0.51 0,0.28 0,0" />
      </g>
      <g
         transform="translate(277.94905,144.03402)"
         id="g5128">
        <path
           inkscape:connector-curvature="0"
           id="path5130"
           style="fill:#012e4e;fill-opacity:1;fill-rule:nonzero;stroke:none"
           d="m 0,0 c 0,-0.329 -0.278,-0.598 -0.618,-0.598 -0.347,0 -0.624,0.269 -0.624,0.598 0,0.33 0.277,0.598 0.624,0.598 C -0.278,0.598 0,0.33 0,0" />
      </g>
      <g
         transform="translate(281.39045,144.03402)"
         id="g5132">
        <path
           inkscape:connector-curvature="0"
           id="path5134"
           style="fill:#012e4e;fill-opacity:1;fill-rule:nonzero;stroke:none"
           d="m 0,0 c 0,-0.389 -0.327,-0.702 -0.731,-0.702 -0.405,0 -0.73,0.313 -0.73,0.702 0,0.388 0.325,0.705 0.73,0.705 C -0.327,0.705 0,0.388 0,0" />
      </g>
      <g
         transform="translate(285.36405,144.03402)"
         id="g5136">
        <path
           inkscape:connector-curvature="0"
           id="path5138"
           style="fill:#012e4e;fill-opacity:1;fill-rule:nonzero;stroke:none"
           d="m 0,0 c 0,-0.461 -0.39,-0.835 -0.87,-0.835 -0.479,0 -0.87,0.374 -0.87,0.835 0,0.464 0.391,0.836 0.87,0.836 C -0.39,0.836 0,0.464 0,0" />
      </g>
      <g
         transform="translate(540.95648,143.91666)"
         id="g5172">
        <path
           inkscape:connector-curvature="0"
           id="path5174"
           style="fill:#012e4e;fill-opacity:1;fill-rule:nonzero;stroke:none"
           d="m 0,0 -32.756,-0.136 -32.754,-0.063 -32.754,-0.067 -16.38,-0.036 c -5.46,0 -10.92,-0.071 -16.377,0.199 -0.058,0.003 -0.103,0.053 -0.101,0.109 0.006,0.054 0.049,0.098 0.101,0.101 5.457,0.267 10.917,0.196 16.377,0.194 L -98.264,0.269 -65.51,0.205 -32.756,0.137 0,0 Z" />
      </g>
      <g
         transform="translate(542.85155,144.07314)"
         id="g5176">
        <path
           inkscape:connector-curvature="0"
           id="path5178"
           style="fill:#012e4e;fill-opacity:1;fill-rule:nonzero;stroke:none"
           d="m 0,0 c 0,-0.229 0.188,-0.415 0.416,-0.415 0.23,0 0.415,0.186 0.415,0.415 0,0.23 -0.185,0.416 -0.415,0.416 C 0.188,0.416 0,0.23 0,0" />
      </g>
      <g
         transform="translate(540.30955,144.07314)"
         id="g5180">
        <path
           inkscape:connector-curvature="0"
           id="path5182"
           style="fill:#012e4e;fill-opacity:1;fill-rule:nonzero;stroke:none"
           d="m 0,0 c 0,-0.262 0.208,-0.471 0.468,-0.471 0.261,0 0.471,0.209 0.471,0.471 0,0.259 -0.21,0.472 -0.471,0.472 C 0.208,0.472 0,0.259 0,0" />
      </g>
      <g
         transform="translate(537.30765,144.07314)"
         id="g5184">
        <path
           inkscape:connector-curvature="0"
           id="path5186"
           style="fill:#012e4e;fill-opacity:1;fill-rule:nonzero;stroke:none"
           d="m 0,0 c 0,-0.281 0.229,-0.513 0.511,-0.513 0.281,0 0.512,0.232 0.512,0.513 0,0.28 -0.231,0.51 -0.512,0.51 C 0.229,0.51 0,0.28 0,0" />
      </g>
      <g
         transform="translate(533.78715,144.07314)"
         id="g5188">
        <path
           inkscape:connector-curvature="0"
           id="path5190"
           style="fill:#012e4e;fill-opacity:1;fill-rule:nonzero;stroke:none"
           d="m 0,0 c 0,-0.329 0.277,-0.598 0.62,-0.598 0.346,0 0.622,0.269 0.622,0.598 0,0.33 -0.276,0.598 -0.622,0.598 C 0.277,0.598 0,0.33 0,0" />
      </g>
      <g
         transform="translate(530.34865,144.07314)"
         id="g5192">
        <path
           inkscape:connector-curvature="0"
           id="path5194"
           style="fill:#012e4e;fill-opacity:1;fill-rule:nonzero;stroke:none"
           d="m 0,0 c 0,-0.389 0.327,-0.702 0.729,-0.702 0.403,0 0.732,0.313 0.732,0.702 0,0.388 -0.329,0.705 -0.732,0.705 C 0.327,0.705 0,0.388 0,0" />
      </g>
      <g
         transform="translate(526.37405,144.07314)"
         id="g5196">
        <path
           inkscape:connector-curvature="0"
           id="path5198"
           style="fill:#012e4e;fill-opacity:1;fill-rule:nonzero;stroke:none"
           d="m 0,0 c 0,-0.461 0.387,-0.835 0.87,-0.835 0.483,0 0.871,0.374 0.871,0.835 0,0.464 -0.388,0.836 -0.871,0.836 C 0.387,0.836 0,0.464 0,0" />
      </g>
      <flowRoot
         xml:space="preserve"
         id="flowRoot7792"
         style="font-style:normal;font-variant:normal;font-weight:normal;font-stretch:normal;line-height:0.01%;font-family:Pristina;-inkscape-font-specification:Pristina;text-align:center;letter-spacing:0px;word-spacing:0px;text-anchor:middle;opacity:1;fill:#163f5d;fill-opacity:1;fill-rule:nonzero;stroke:none;stroke-width:1.00009251;stroke-linecap:butt;stroke-linejoin:miter;stroke-miterlimit:4;stroke-dasharray:none;stroke-opacity:1"
         transform="matrix(2.2213005,0,0,-2.2213005,-384.81377,2049.2568)"><flowRegion
           id="flowRegion7794"
           style="fill:url(#linearGradient10819);fill-opacity:1;stroke:url(#radialGradient10821)"><rect
             id="rect7796"
             width="60.609154"
             height="58.588848"
             x="327.28943"
             y="824.06775"
             style="font-style:normal;font-variant:normal;font-weight:normal;font-stretch:normal;font-size:50px;font-family:Pristina;-inkscape-font-specification:Pristina;text-align:center;text-anchor:middle;fill:#163f5d;fill-opacity:1;fill-rule:nonzero;stroke:none;stroke-width:1.00009251;stroke-miterlimit:4;stroke-dasharray:none;stroke-opacity:1" /></flowRegion><flowPara
           id="flowPara7798"
           style="font-style:normal;font-variant:normal;font-weight:normal;font-stretch:normal;font-size:50px;line-height:1.25;font-family:Pristina;-inkscape-font-specification:Pristina;fill:#163f5d;fill-opacity:1;fill-rule:nonzero;stroke:none;stroke-width:1.00009251;stroke-miterlimit:4;stroke-dasharray:none;stroke-opacity:1">2</flowPara></flowRoot>      <text
         xml:space="preserve"
         style="font-style:normal;font-weight:normal;line-height:0%;font-family:sans-serif;letter-spacing:0px;word-spacing:0px;fill:#012e4e;fill-opacity:1;stroke:none;stroke-width:1px;stroke-linecap:butt;stroke-linejoin:miter;stroke-opacity:1"
         x="327.01883"
         y="-146.26424"
         id="text7810"
         transform="scale(1,-1)"><tspan
           sodipodi:role="line"
           id="tspan7812"
           x="327.01883"
           y="-146.26424"
           style="font-size:23.36228371px;line-height:1.25">climb</tspan></text>
      <text
         xml:space="preserve"
         style="font-style:normal;font-weight:normal;line-height:0%;font-family:sans-serif;letter-spacing:0px;word-spacing:0px;fill:#012e4e;fill-opacity:1;stroke:none;stroke-width:1px;stroke-linecap:butt;stroke-linejoin:miter;stroke-opacity:1"
         x="424.71005"
         y="-145.49503"
         id="text7814"
         transform="scale(1,-1)"><tspan
           sodipodi:role="line"
           id="tspan7816"
           x="424.71005"
           y="-145.49503"
           style="font-size:24.78667831px;line-height:1.25">gether</tspan></text>
    </g>
  </g>
</svg>
